G04 #@! TF.GenerationSoftware,KiCad,Pcbnew,5.1.10*
G04 #@! TF.CreationDate,2021-10-23T19:52:43-07:00*
G04 #@! TF.ProjectId,sticky_pi_hat,73746963-6b79-45f7-9069-5f6861742e6b,rev?*
G04 #@! TF.SameCoordinates,Original*
G04 #@! TF.FileFunction,Paste,Top*
G04 #@! TF.FilePolarity,Positive*
%FSLAX46Y46*%
G04 Gerber Fmt 4.6, Leading zero omitted, Abs format (unit mm)*
G04 Created by KiCad (PCBNEW 5.1.10) date 2021-10-23 19:52:43*
%MOMM*%
%LPD*%
G01*
G04 APERTURE LIST*
%ADD10R,0.800000X0.900000*%
%ADD11R,3.300000X3.500000*%
%ADD12R,1.100000X1.100000*%
%ADD13R,0.900000X0.800000*%
%ADD14R,1.200000X0.600000*%
%ADD15O,0.230000X0.800000*%
%ADD16R,0.230000X0.230000*%
%ADD17R,1.050000X0.680000*%
%ADD18R,0.500000X0.260000*%
%ADD19R,1.060000X0.650000*%
%ADD20R,1.000000X2.750000*%
G04 APERTURE END LIST*
G36*
G01*
X148111800Y-108208002D02*
X149761802Y-108208002D01*
G75*
G02*
X149936801Y-108383001I0J-174999D01*
G01*
X149936801Y-108383001D01*
G75*
G02*
X149761802Y-108558000I-174999J0D01*
G01*
X148111800Y-108558000D01*
G75*
G02*
X147936801Y-108383001I0J174999D01*
G01*
X147936801Y-108383001D01*
G75*
G02*
X148111800Y-108208002I174999J0D01*
G01*
G37*
G36*
G01*
X148111800Y-107558001D02*
X149761802Y-107558001D01*
G75*
G02*
X149936801Y-107733000I0J-174999D01*
G01*
X149936801Y-107733000D01*
G75*
G02*
X149761802Y-107907999I-174999J0D01*
G01*
X148111800Y-107907999D01*
G75*
G02*
X147936801Y-107733000I0J174999D01*
G01*
X147936801Y-107733000D01*
G75*
G02*
X148111800Y-107558001I174999J0D01*
G01*
G37*
G36*
G01*
X148111800Y-106908002D02*
X149761802Y-106908002D01*
G75*
G02*
X149936801Y-107083001I0J-174999D01*
G01*
X149936801Y-107083001D01*
G75*
G02*
X149761802Y-107258000I-174999J0D01*
G01*
X148111800Y-107258000D01*
G75*
G02*
X147936801Y-107083001I0J174999D01*
G01*
X147936801Y-107083001D01*
G75*
G02*
X148111800Y-106908002I174999J0D01*
G01*
G37*
G36*
G01*
X148111800Y-106258001D02*
X149761802Y-106258001D01*
G75*
G02*
X149936801Y-106433000I0J-174999D01*
G01*
X149936801Y-106433000D01*
G75*
G02*
X149761802Y-106607999I-174999J0D01*
G01*
X148111800Y-106607999D01*
G75*
G02*
X147936801Y-106433000I0J174999D01*
G01*
X147936801Y-106433000D01*
G75*
G02*
X148111800Y-106258001I174999J0D01*
G01*
G37*
G36*
G01*
X142311799Y-108208002D02*
X143961801Y-108208002D01*
G75*
G02*
X144136800Y-108383001I0J-174999D01*
G01*
X144136800Y-108383001D01*
G75*
G02*
X143961801Y-108558000I-174999J0D01*
G01*
X142311799Y-108558000D01*
G75*
G02*
X142136800Y-108383001I0J174999D01*
G01*
X142136800Y-108383001D01*
G75*
G02*
X142311799Y-108208002I174999J0D01*
G01*
G37*
G36*
G01*
X142311799Y-107558001D02*
X143961801Y-107558001D01*
G75*
G02*
X144136800Y-107733000I0J-174999D01*
G01*
X144136800Y-107733000D01*
G75*
G02*
X143961801Y-107907999I-174999J0D01*
G01*
X142311799Y-107907999D01*
G75*
G02*
X142136800Y-107733000I0J174999D01*
G01*
X142136800Y-107733000D01*
G75*
G02*
X142311799Y-107558001I174999J0D01*
G01*
G37*
G36*
G01*
X142311799Y-106908002D02*
X143961801Y-106908002D01*
G75*
G02*
X144136800Y-107083001I0J-174999D01*
G01*
X144136800Y-107083001D01*
G75*
G02*
X143961801Y-107258000I-174999J0D01*
G01*
X142311799Y-107258000D01*
G75*
G02*
X142136800Y-107083001I0J174999D01*
G01*
X142136800Y-107083001D01*
G75*
G02*
X142311799Y-106908002I174999J0D01*
G01*
G37*
G36*
G01*
X142311799Y-106258001D02*
X143961801Y-106258001D01*
G75*
G02*
X144136800Y-106433000I0J-174999D01*
G01*
X144136800Y-106433000D01*
G75*
G02*
X143961801Y-106607999I-174999J0D01*
G01*
X142311799Y-106607999D01*
G75*
G02*
X142136800Y-106433000I0J174999D01*
G01*
X142136800Y-106433000D01*
G75*
G02*
X142311799Y-106258001I174999J0D01*
G01*
G37*
G36*
G01*
X137282700Y-107246999D02*
X137282700Y-108147001D01*
G75*
G02*
X137032701Y-108397000I-249999J0D01*
G01*
X136507699Y-108397000D01*
G75*
G02*
X136257700Y-108147001I0J249999D01*
G01*
X136257700Y-107246999D01*
G75*
G02*
X136507699Y-106997000I249999J0D01*
G01*
X137032701Y-106997000D01*
G75*
G02*
X137282700Y-107246999I0J-249999D01*
G01*
G37*
G36*
G01*
X139107700Y-107246999D02*
X139107700Y-108147001D01*
G75*
G02*
X138857701Y-108397000I-249999J0D01*
G01*
X138332699Y-108397000D01*
G75*
G02*
X138082700Y-108147001I0J249999D01*
G01*
X138082700Y-107246999D01*
G75*
G02*
X138332699Y-106997000I249999J0D01*
G01*
X138857701Y-106997000D01*
G75*
G02*
X139107700Y-107246999I0J-249999D01*
G01*
G37*
D10*
X140545200Y-112397000D03*
X139595200Y-110397000D03*
X141495200Y-110397000D03*
G36*
G01*
X131320200Y-111584500D02*
X133470200Y-111584500D01*
G75*
G02*
X133720200Y-111834500I0J-250000D01*
G01*
X133720200Y-112559500D01*
G75*
G02*
X133470200Y-112809500I-250000J0D01*
G01*
X131320200Y-112809500D01*
G75*
G02*
X131070200Y-112559500I0J250000D01*
G01*
X131070200Y-111834500D01*
G75*
G02*
X131320200Y-111584500I250000J0D01*
G01*
G37*
G36*
G01*
X131320200Y-106959500D02*
X133470200Y-106959500D01*
G75*
G02*
X133720200Y-107209500I0J-250000D01*
G01*
X133720200Y-107934500D01*
G75*
G02*
X133470200Y-108184500I-250000J0D01*
G01*
X131320200Y-108184500D01*
G75*
G02*
X131070200Y-107934500I0J250000D01*
G01*
X131070200Y-107209500D01*
G75*
G02*
X131320200Y-106959500I250000J0D01*
G01*
G37*
D11*
X160528000Y-97256000D03*
X160528000Y-113056000D03*
G36*
G01*
X141441600Y-122438399D02*
X141441600Y-123738401D01*
G75*
G02*
X141191601Y-123988400I-249999J0D01*
G01*
X140541599Y-123988400D01*
G75*
G02*
X140291600Y-123738401I0J249999D01*
G01*
X140291600Y-122438399D01*
G75*
G02*
X140541599Y-122188400I249999J0D01*
G01*
X141191601Y-122188400D01*
G75*
G02*
X141441600Y-122438399I0J-249999D01*
G01*
G37*
G36*
G01*
X144391600Y-122438399D02*
X144391600Y-123738401D01*
G75*
G02*
X144141601Y-123988400I-249999J0D01*
G01*
X143491599Y-123988400D01*
G75*
G02*
X143241600Y-123738401I0J249999D01*
G01*
X143241600Y-122438399D01*
G75*
G02*
X143491599Y-122188400I249999J0D01*
G01*
X144141601Y-122188400D01*
G75*
G02*
X144391600Y-122438399I0J-249999D01*
G01*
G37*
D12*
X120446800Y-120926400D03*
X120446800Y-123726400D03*
D13*
X126120400Y-120954800D03*
X124120400Y-121904800D03*
X124120400Y-120004800D03*
X130794000Y-117094000D03*
X128794000Y-118044000D03*
X128794000Y-116144000D03*
G36*
G01*
X147215500Y-96833000D02*
X147215500Y-94683000D01*
G75*
G02*
X147465500Y-94433000I250000J0D01*
G01*
X148190500Y-94433000D01*
G75*
G02*
X148440500Y-94683000I0J-250000D01*
G01*
X148440500Y-96833000D01*
G75*
G02*
X148190500Y-97083000I-250000J0D01*
G01*
X147465500Y-97083000D01*
G75*
G02*
X147215500Y-96833000I0J250000D01*
G01*
G37*
G36*
G01*
X142590500Y-96833000D02*
X142590500Y-94683000D01*
G75*
G02*
X142840500Y-94433000I250000J0D01*
G01*
X143565500Y-94433000D01*
G75*
G02*
X143815500Y-94683000I0J-250000D01*
G01*
X143815500Y-96833000D01*
G75*
G02*
X143565500Y-97083000I-250000J0D01*
G01*
X142840500Y-97083000D01*
G75*
G02*
X142590500Y-96833000I0J250000D01*
G01*
G37*
D14*
X171196000Y-118780000D03*
X171196000Y-119980000D03*
D15*
X137144000Y-117299000D03*
X136644000Y-117299000D03*
X136144000Y-117299000D03*
D16*
X135644000Y-117584000D03*
X135144000Y-117584000D03*
D15*
X135144000Y-114349000D03*
D16*
X135644000Y-114064000D03*
D15*
X136144000Y-114349000D03*
D16*
X136644000Y-114064000D03*
X137144000Y-114064000D03*
D17*
X135509000Y-116274000D03*
X135509000Y-115374000D03*
X136779000Y-116274000D03*
D18*
X134514000Y-116074000D03*
X134514000Y-115574000D03*
X137774000Y-116074000D03*
X137774000Y-115574000D03*
D17*
X136779000Y-115374000D03*
D16*
X137144000Y-117584000D03*
X136644000Y-117584000D03*
X136144000Y-117584000D03*
D15*
X135644000Y-117299000D03*
X135144000Y-117299000D03*
D16*
X135144000Y-114064000D03*
D15*
X135644000Y-114349000D03*
D16*
X136144000Y-114064000D03*
D15*
X136644000Y-114349000D03*
X137144000Y-114349000D03*
G36*
G01*
X165854000Y-125518000D02*
X165854000Y-124418000D01*
G75*
G02*
X166104000Y-124168000I250000J0D01*
G01*
X168204000Y-124168000D01*
G75*
G02*
X168454000Y-124418000I0J-250000D01*
G01*
X168454000Y-125518000D01*
G75*
G02*
X168204000Y-125768000I-250000J0D01*
G01*
X166104000Y-125768000D01*
G75*
G02*
X165854000Y-125518000I0J250000D01*
G01*
G37*
G36*
G01*
X162254000Y-125518000D02*
X162254000Y-124418000D01*
G75*
G02*
X162504000Y-124168000I250000J0D01*
G01*
X164604000Y-124168000D01*
G75*
G02*
X164854000Y-124418000I0J-250000D01*
G01*
X164854000Y-125518000D01*
G75*
G02*
X164604000Y-125768000I-250000J0D01*
G01*
X162504000Y-125768000D01*
G75*
G02*
X162254000Y-125518000I0J250000D01*
G01*
G37*
G36*
G01*
X151324999Y-90293000D02*
X153475001Y-90293000D01*
G75*
G02*
X153725000Y-90542999I0J-249999D01*
G01*
X153725000Y-91268001D01*
G75*
G02*
X153475001Y-91518000I-249999J0D01*
G01*
X151324999Y-91518000D01*
G75*
G02*
X151075000Y-91268001I0J249999D01*
G01*
X151075000Y-90542999D01*
G75*
G02*
X151324999Y-90293000I249999J0D01*
G01*
G37*
G36*
G01*
X151324999Y-94918000D02*
X153475001Y-94918000D01*
G75*
G02*
X153725000Y-95167999I0J-249999D01*
G01*
X153725000Y-95893001D01*
G75*
G02*
X153475001Y-96143000I-249999J0D01*
G01*
X151324999Y-96143000D01*
G75*
G02*
X151075000Y-95893001I0J249999D01*
G01*
X151075000Y-95167999D01*
G75*
G02*
X151324999Y-94918000I249999J0D01*
G01*
G37*
D13*
X147050000Y-90932000D03*
X145050000Y-91882000D03*
X145050000Y-89982000D03*
G36*
G01*
X164870000Y-119865000D02*
X164870000Y-120165000D01*
G75*
G02*
X164720000Y-120315000I-150000J0D01*
G01*
X163070000Y-120315000D01*
G75*
G02*
X162920000Y-120165000I0J150000D01*
G01*
X162920000Y-119865000D01*
G75*
G02*
X163070000Y-119715000I150000J0D01*
G01*
X164720000Y-119715000D01*
G75*
G02*
X164870000Y-119865000I0J-150000D01*
G01*
G37*
G36*
G01*
X164870000Y-118595000D02*
X164870000Y-118895000D01*
G75*
G02*
X164720000Y-119045000I-150000J0D01*
G01*
X163070000Y-119045000D01*
G75*
G02*
X162920000Y-118895000I0J150000D01*
G01*
X162920000Y-118595000D01*
G75*
G02*
X163070000Y-118445000I150000J0D01*
G01*
X164720000Y-118445000D01*
G75*
G02*
X164870000Y-118595000I0J-150000D01*
G01*
G37*
G36*
G01*
X164870000Y-117325000D02*
X164870000Y-117625000D01*
G75*
G02*
X164720000Y-117775000I-150000J0D01*
G01*
X163070000Y-117775000D01*
G75*
G02*
X162920000Y-117625000I0J150000D01*
G01*
X162920000Y-117325000D01*
G75*
G02*
X163070000Y-117175000I150000J0D01*
G01*
X164720000Y-117175000D01*
G75*
G02*
X164870000Y-117325000I0J-150000D01*
G01*
G37*
G36*
G01*
X164870000Y-116055000D02*
X164870000Y-116355000D01*
G75*
G02*
X164720000Y-116505000I-150000J0D01*
G01*
X163070000Y-116505000D01*
G75*
G02*
X162920000Y-116355000I0J150000D01*
G01*
X162920000Y-116055000D01*
G75*
G02*
X163070000Y-115905000I150000J0D01*
G01*
X164720000Y-115905000D01*
G75*
G02*
X164870000Y-116055000I0J-150000D01*
G01*
G37*
G36*
G01*
X169820000Y-116055000D02*
X169820000Y-116355000D01*
G75*
G02*
X169670000Y-116505000I-150000J0D01*
G01*
X168020000Y-116505000D01*
G75*
G02*
X167870000Y-116355000I0J150000D01*
G01*
X167870000Y-116055000D01*
G75*
G02*
X168020000Y-115905000I150000J0D01*
G01*
X169670000Y-115905000D01*
G75*
G02*
X169820000Y-116055000I0J-150000D01*
G01*
G37*
G36*
G01*
X169820000Y-117325000D02*
X169820000Y-117625000D01*
G75*
G02*
X169670000Y-117775000I-150000J0D01*
G01*
X168020000Y-117775000D01*
G75*
G02*
X167870000Y-117625000I0J150000D01*
G01*
X167870000Y-117325000D01*
G75*
G02*
X168020000Y-117175000I150000J0D01*
G01*
X169670000Y-117175000D01*
G75*
G02*
X169820000Y-117325000I0J-150000D01*
G01*
G37*
G36*
G01*
X169820000Y-118595000D02*
X169820000Y-118895000D01*
G75*
G02*
X169670000Y-119045000I-150000J0D01*
G01*
X168020000Y-119045000D01*
G75*
G02*
X167870000Y-118895000I0J150000D01*
G01*
X167870000Y-118595000D01*
G75*
G02*
X168020000Y-118445000I150000J0D01*
G01*
X169670000Y-118445000D01*
G75*
G02*
X169820000Y-118595000I0J-150000D01*
G01*
G37*
G36*
G01*
X169820000Y-119865000D02*
X169820000Y-120165000D01*
G75*
G02*
X169670000Y-120315000I-150000J0D01*
G01*
X168020000Y-120315000D01*
G75*
G02*
X167870000Y-120165000I0J150000D01*
G01*
X167870000Y-119865000D01*
G75*
G02*
X168020000Y-119715000I150000J0D01*
G01*
X169670000Y-119715000D01*
G75*
G02*
X169820000Y-119865000I0J-150000D01*
G01*
G37*
G36*
G01*
X132191999Y-116470000D02*
X133492001Y-116470000D01*
G75*
G02*
X133742000Y-116719999I0J-249999D01*
G01*
X133742000Y-117370001D01*
G75*
G02*
X133492001Y-117620000I-249999J0D01*
G01*
X132191999Y-117620000D01*
G75*
G02*
X131942000Y-117370001I0J249999D01*
G01*
X131942000Y-116719999D01*
G75*
G02*
X132191999Y-116470000I249999J0D01*
G01*
G37*
G36*
G01*
X132191999Y-113520000D02*
X133492001Y-113520000D01*
G75*
G02*
X133742000Y-113769999I0J-249999D01*
G01*
X133742000Y-114420001D01*
G75*
G02*
X133492001Y-114670000I-249999J0D01*
G01*
X132191999Y-114670000D01*
G75*
G02*
X131942000Y-114420001I0J249999D01*
G01*
X131942000Y-113769999D01*
G75*
G02*
X132191999Y-113520000I249999J0D01*
G01*
G37*
D19*
X123020000Y-116078000D03*
X123020000Y-115128000D03*
X123020000Y-117028000D03*
X120820000Y-117028000D03*
X120820000Y-116078000D03*
X120820000Y-115128000D03*
G36*
G01*
X159840400Y-124569801D02*
X159840400Y-122419799D01*
G75*
G02*
X160090399Y-122169800I249999J0D01*
G01*
X160815401Y-122169800D01*
G75*
G02*
X161065400Y-122419799I0J-249999D01*
G01*
X161065400Y-124569801D01*
G75*
G02*
X160815401Y-124819800I-249999J0D01*
G01*
X160090399Y-124819800D01*
G75*
G02*
X159840400Y-124569801I0J249999D01*
G01*
G37*
G36*
G01*
X155215400Y-124569801D02*
X155215400Y-122419799D01*
G75*
G02*
X155465399Y-122169800I249999J0D01*
G01*
X156190401Y-122169800D01*
G75*
G02*
X156440400Y-122419799I0J-249999D01*
G01*
X156440400Y-124569801D01*
G75*
G02*
X156190401Y-124819800I-249999J0D01*
G01*
X155465399Y-124819800D01*
G75*
G02*
X155215400Y-124569801I0J249999D01*
G01*
G37*
G36*
G01*
X151864800Y-124366601D02*
X151864800Y-122216599D01*
G75*
G02*
X152114799Y-121966600I249999J0D01*
G01*
X152839801Y-121966600D01*
G75*
G02*
X153089800Y-122216599I0J-249999D01*
G01*
X153089800Y-124366601D01*
G75*
G02*
X152839801Y-124616600I-249999J0D01*
G01*
X152114799Y-124616600D01*
G75*
G02*
X151864800Y-124366601I0J249999D01*
G01*
G37*
G36*
G01*
X147239800Y-124366601D02*
X147239800Y-122216599D01*
G75*
G02*
X147489799Y-121966600I249999J0D01*
G01*
X148214801Y-121966600D01*
G75*
G02*
X148464800Y-122216599I0J-249999D01*
G01*
X148464800Y-124366601D01*
G75*
G02*
X148214801Y-124616600I-249999J0D01*
G01*
X147489799Y-124616600D01*
G75*
G02*
X147239800Y-124366601I0J249999D01*
G01*
G37*
G36*
G01*
X127313001Y-112854000D02*
X125162999Y-112854000D01*
G75*
G02*
X124913000Y-112604001I0J249999D01*
G01*
X124913000Y-111878999D01*
G75*
G02*
X125162999Y-111629000I249999J0D01*
G01*
X127313001Y-111629000D01*
G75*
G02*
X127563000Y-111878999I0J-249999D01*
G01*
X127563000Y-112604001D01*
G75*
G02*
X127313001Y-112854000I-249999J0D01*
G01*
G37*
G36*
G01*
X127313001Y-117479000D02*
X125162999Y-117479000D01*
G75*
G02*
X124913000Y-117229001I0J249999D01*
G01*
X124913000Y-116503999D01*
G75*
G02*
X125162999Y-116254000I249999J0D01*
G01*
X127313001Y-116254000D01*
G75*
G02*
X127563000Y-116503999I0J-249999D01*
G01*
X127563000Y-117229001D01*
G75*
G02*
X127313001Y-117479000I-249999J0D01*
G01*
G37*
G36*
G01*
X129110000Y-120336999D02*
X129110000Y-122487001D01*
G75*
G02*
X128860001Y-122737000I-249999J0D01*
G01*
X128134999Y-122737000D01*
G75*
G02*
X127885000Y-122487001I0J249999D01*
G01*
X127885000Y-120336999D01*
G75*
G02*
X128134999Y-120087000I249999J0D01*
G01*
X128860001Y-120087000D01*
G75*
G02*
X129110000Y-120336999I0J-249999D01*
G01*
G37*
G36*
G01*
X133735000Y-120336999D02*
X133735000Y-122487001D01*
G75*
G02*
X133485001Y-122737000I-249999J0D01*
G01*
X132759999Y-122737000D01*
G75*
G02*
X132510000Y-122487001I0J249999D01*
G01*
X132510000Y-120336999D01*
G75*
G02*
X132759999Y-120087000I249999J0D01*
G01*
X133485001Y-120087000D01*
G75*
G02*
X133735000Y-120336999I0J-249999D01*
G01*
G37*
G36*
G01*
X149684000Y-112208999D02*
X149684000Y-114359001D01*
G75*
G02*
X149434001Y-114609000I-249999J0D01*
G01*
X148708999Y-114609000D01*
G75*
G02*
X148459000Y-114359001I0J249999D01*
G01*
X148459000Y-112208999D01*
G75*
G02*
X148708999Y-111959000I249999J0D01*
G01*
X149434001Y-111959000D01*
G75*
G02*
X149684000Y-112208999I0J-249999D01*
G01*
G37*
G36*
G01*
X154309000Y-112208999D02*
X154309000Y-114359001D01*
G75*
G02*
X154059001Y-114609000I-249999J0D01*
G01*
X153333999Y-114609000D01*
G75*
G02*
X153084000Y-114359001I0J249999D01*
G01*
X153084000Y-112208999D01*
G75*
G02*
X153333999Y-111959000I249999J0D01*
G01*
X154059001Y-111959000D01*
G75*
G02*
X154309000Y-112208999I0J-249999D01*
G01*
G37*
G36*
G01*
X117407001Y-115902000D02*
X115256999Y-115902000D01*
G75*
G02*
X115007000Y-115652001I0J249999D01*
G01*
X115007000Y-114926999D01*
G75*
G02*
X115256999Y-114677000I249999J0D01*
G01*
X117407001Y-114677000D01*
G75*
G02*
X117657000Y-114926999I0J-249999D01*
G01*
X117657000Y-115652001D01*
G75*
G02*
X117407001Y-115902000I-249999J0D01*
G01*
G37*
G36*
G01*
X117407001Y-120527000D02*
X115256999Y-120527000D01*
G75*
G02*
X115007000Y-120277001I0J249999D01*
G01*
X115007000Y-119551999D01*
G75*
G02*
X115256999Y-119302000I249999J0D01*
G01*
X117407001Y-119302000D01*
G75*
G02*
X117657000Y-119551999I0J-249999D01*
G01*
X117657000Y-120277001D01*
G75*
G02*
X117407001Y-120527000I-249999J0D01*
G01*
G37*
D20*
X134994000Y-111760000D03*
X137294000Y-111760000D03*
G36*
G01*
X142859999Y-116470000D02*
X144160001Y-116470000D01*
G75*
G02*
X144410000Y-116719999I0J-249999D01*
G01*
X144410000Y-117370001D01*
G75*
G02*
X144160001Y-117620000I-249999J0D01*
G01*
X142859999Y-117620000D01*
G75*
G02*
X142610000Y-117370001I0J249999D01*
G01*
X142610000Y-116719999D01*
G75*
G02*
X142859999Y-116470000I249999J0D01*
G01*
G37*
G36*
G01*
X142859999Y-113520000D02*
X144160001Y-113520000D01*
G75*
G02*
X144410000Y-113769999I0J-249999D01*
G01*
X144410000Y-114420001D01*
G75*
G02*
X144160001Y-114670000I-249999J0D01*
G01*
X142859999Y-114670000D01*
G75*
G02*
X142610000Y-114420001I0J249999D01*
G01*
X142610000Y-113769999D01*
G75*
G02*
X142859999Y-113520000I249999J0D01*
G01*
G37*
G36*
G01*
X139849999Y-116375000D02*
X141150001Y-116375000D01*
G75*
G02*
X141400000Y-116624999I0J-249999D01*
G01*
X141400000Y-117275001D01*
G75*
G02*
X141150001Y-117525000I-249999J0D01*
G01*
X139849999Y-117525000D01*
G75*
G02*
X139600000Y-117275001I0J249999D01*
G01*
X139600000Y-116624999D01*
G75*
G02*
X139849999Y-116375000I249999J0D01*
G01*
G37*
G36*
G01*
X139849999Y-113425000D02*
X141150001Y-113425000D01*
G75*
G02*
X141400000Y-113674999I0J-249999D01*
G01*
X141400000Y-114325001D01*
G75*
G02*
X141150001Y-114575000I-249999J0D01*
G01*
X139849999Y-114575000D01*
G75*
G02*
X139600000Y-114325001I0J249999D01*
G01*
X139600000Y-113674999D01*
G75*
G02*
X139849999Y-113425000I249999J0D01*
G01*
G37*
G36*
G01*
X135575000Y-120849999D02*
X135575000Y-122150001D01*
G75*
G02*
X135325001Y-122400000I-249999J0D01*
G01*
X134674999Y-122400000D01*
G75*
G02*
X134425000Y-122150001I0J249999D01*
G01*
X134425000Y-120849999D01*
G75*
G02*
X134674999Y-120600000I249999J0D01*
G01*
X135325001Y-120600000D01*
G75*
G02*
X135575000Y-120849999I0J-249999D01*
G01*
G37*
G36*
G01*
X138525000Y-120849999D02*
X138525000Y-122150001D01*
G75*
G02*
X138275001Y-122400000I-249999J0D01*
G01*
X137624999Y-122400000D01*
G75*
G02*
X137375000Y-122150001I0J249999D01*
G01*
X137375000Y-120849999D01*
G75*
G02*
X137624999Y-120600000I249999J0D01*
G01*
X138275001Y-120600000D01*
G75*
G02*
X138525000Y-120849999I0J-249999D01*
G01*
G37*
M02*
