M48
INCH,TZ
T1C0.0118
T2C0.0157
T3C0.0300
T4C0.0394
T5C0.0433
T6C0.1260
%
G90
G05
T1
X53305Y-45403
X53305Y-45797
X53600Y-45600
X53895Y-45403
X53895Y-45797
T2
X48642Y-46518
X49800Y-45440
X49840Y-48160
X50360Y-41780
X50580Y-48940
X54600Y-45200
X54600Y-46000
X54737Y-42976
X55320Y-41880
X56721Y-44005
X56931Y-43458
X57163Y-45353
X57365Y-49400
X57640Y-48400
X60120Y-38274
X62600Y-47900
T3
X44600Y-43700
X46900Y-38000
X51000Y-38600
X56500Y-47100
X61100Y-45900
X67000Y-48200
T4
X46799Y-40043
X46799Y-41043
X47799Y-40043
X47799Y-41043
X48780Y-42780
X48799Y-40043
X48799Y-41043
X49780Y-42780
X49799Y-40043
X49799Y-41043
X50799Y-40043
X50799Y-41043
X51799Y-40043
X51799Y-41043
X52799Y-40043
X52799Y-41043
X53799Y-40043
X53799Y-41043
X54799Y-40043
X54799Y-41043
X55799Y-40043
X55799Y-41043
X56799Y-40043
X56799Y-41043
X57799Y-40043
X57799Y-41043
X58799Y-40043
X58799Y-41043
T5
X45000Y-35500
X46000Y-35500
X47000Y-35500
X48000Y-35500
X49000Y-35500
X50000Y-35500
X51000Y-35500
X52000Y-35500
X53000Y-35500
X54000Y-35500
X55000Y-35500
T6
X44884Y-40550
X44884Y-49605
X67719Y-40550
X67719Y-49605
T0
M30
