G04 #@! TF.GenerationSoftware,KiCad,Pcbnew,6.0.0*
G04 #@! TF.CreationDate,2022-01-07T13:13:09+02:00*
G04 #@! TF.ProjectId,sticky_pi_hat,73746963-6b79-45f7-9069-5f6861742e6b,rev?*
G04 #@! TF.SameCoordinates,Original*
G04 #@! TF.FileFunction,Copper,L1,Top*
G04 #@! TF.FilePolarity,Positive*
%FSLAX46Y46*%
G04 Gerber Fmt 4.6, Leading zero omitted, Abs format (unit mm)*
G04 Created by KiCad (PCBNEW 6.0.0) date 2022-01-07 13:13:09*
%MOMM*%
%LPD*%
G01*
G04 APERTURE LIST*
G04 Aperture macros list*
%AMRoundRect*
0 Rectangle with rounded corners*
0 $1 Rounding radius*
0 $2 $3 $4 $5 $6 $7 $8 $9 X,Y pos of 4 corners*
0 Add a 4 corners polygon primitive as box body*
4,1,4,$2,$3,$4,$5,$6,$7,$8,$9,$2,$3,0*
0 Add four circle primitives for the rounded corners*
1,1,$1+$1,$2,$3*
1,1,$1+$1,$4,$5*
1,1,$1+$1,$6,$7*
1,1,$1+$1,$8,$9*
0 Add four rect primitives between the rounded corners*
20,1,$1+$1,$2,$3,$4,$5,0*
20,1,$1+$1,$4,$5,$6,$7,0*
20,1,$1+$1,$6,$7,$8,$9,0*
20,1,$1+$1,$8,$9,$2,$3,0*%
G04 Aperture macros list end*
G04 #@! TA.AperFunction,SMDPad,CuDef*
%ADD10RoundRect,0.249999X0.362501X1.075001X-0.362501X1.075001X-0.362501X-1.075001X0.362501X-1.075001X0*%
G04 #@! TD*
G04 #@! TA.AperFunction,SMDPad,CuDef*
%ADD11RoundRect,0.249999X1.075001X-0.362501X1.075001X0.362501X-1.075001X0.362501X-1.075001X-0.362501X0*%
G04 #@! TD*
G04 #@! TA.AperFunction,SMDPad,CuDef*
%ADD12R,1.000000X2.750000*%
G04 #@! TD*
G04 #@! TA.AperFunction,ComponentPad*
%ADD13R,2.100000X2.100000*%
G04 #@! TD*
G04 #@! TA.AperFunction,ComponentPad*
%ADD14C,2.100000*%
G04 #@! TD*
G04 #@! TA.AperFunction,SMDPad,CuDef*
%ADD15RoundRect,0.249999X-0.362501X-1.075001X0.362501X-1.075001X0.362501X1.075001X-0.362501X1.075001X0*%
G04 #@! TD*
G04 #@! TA.AperFunction,SMDPad,CuDef*
%ADD16R,3.300000X3.500000*%
G04 #@! TD*
G04 #@! TA.AperFunction,SMDPad,CuDef*
%ADD17C,10.200000*%
G04 #@! TD*
G04 #@! TA.AperFunction,SMDPad,CuDef*
%ADD18RoundRect,0.150000X0.825000X0.150000X-0.825000X0.150000X-0.825000X-0.150000X0.825000X-0.150000X0*%
G04 #@! TD*
G04 #@! TA.AperFunction,SMDPad,CuDef*
%ADD19R,0.900000X0.800000*%
G04 #@! TD*
G04 #@! TA.AperFunction,SMDPad,CuDef*
%ADD20RoundRect,0.249999X-1.075001X0.362501X-1.075001X-0.362501X1.075001X-0.362501X1.075001X0.362501X0*%
G04 #@! TD*
G04 #@! TA.AperFunction,SMDPad,CuDef*
%ADD21RoundRect,0.249999X-0.650001X0.325001X-0.650001X-0.325001X0.650001X-0.325001X0.650001X0.325001X0*%
G04 #@! TD*
G04 #@! TA.AperFunction,SMDPad,CuDef*
%ADD22RoundRect,0.249999X0.325001X0.650001X-0.325001X0.650001X-0.325001X-0.650001X0.325001X-0.650001X0*%
G04 #@! TD*
G04 #@! TA.AperFunction,SMDPad,CuDef*
%ADD23RoundRect,0.250000X-1.050000X-0.550000X1.050000X-0.550000X1.050000X0.550000X-1.050000X0.550000X0*%
G04 #@! TD*
G04 #@! TA.AperFunction,SMDPad,CuDef*
%ADD24R,1.200000X0.600000*%
G04 #@! TD*
G04 #@! TA.AperFunction,SMDPad,CuDef*
%ADD25RoundRect,0.250000X-0.362500X-1.075000X0.362500X-1.075000X0.362500X1.075000X-0.362500X1.075000X0*%
G04 #@! TD*
G04 #@! TA.AperFunction,SMDPad,CuDef*
%ADD26R,0.280000X0.280000*%
G04 #@! TD*
G04 #@! TA.AperFunction,SMDPad,CuDef*
%ADD27O,0.280000X0.850000*%
G04 #@! TD*
G04 #@! TA.AperFunction,SMDPad,CuDef*
%ADD28R,0.700000X0.280000*%
G04 #@! TD*
G04 #@! TA.AperFunction,SMDPad,CuDef*
%ADD29R,0.500000X0.260000*%
G04 #@! TD*
G04 #@! TA.AperFunction,ComponentPad*
%ADD30C,0.600000*%
G04 #@! TD*
G04 #@! TA.AperFunction,SMDPad,CuDef*
%ADD31R,1.050000X0.680000*%
G04 #@! TD*
G04 #@! TA.AperFunction,SMDPad,CuDef*
%ADD32R,2.400000X1.650000*%
G04 #@! TD*
G04 #@! TA.AperFunction,SMDPad,CuDef*
%ADD33R,1.060000X0.650000*%
G04 #@! TD*
G04 #@! TA.AperFunction,ComponentPad*
%ADD34R,1.700000X1.700000*%
G04 #@! TD*
G04 #@! TA.AperFunction,ComponentPad*
%ADD35O,1.700000X1.700000*%
G04 #@! TD*
G04 #@! TA.AperFunction,ComponentPad*
%ADD36C,5.600000*%
G04 #@! TD*
G04 #@! TA.AperFunction,SMDPad,CuDef*
%ADD37RoundRect,0.250000X-1.075000X0.362500X-1.075000X-0.362500X1.075000X-0.362500X1.075000X0.362500X0*%
G04 #@! TD*
G04 #@! TA.AperFunction,SMDPad,CuDef*
%ADD38RoundRect,0.249999X0.262501X0.450001X-0.262501X0.450001X-0.262501X-0.450001X0.262501X-0.450001X0*%
G04 #@! TD*
G04 #@! TA.AperFunction,SMDPad,CuDef*
%ADD39R,0.800000X0.900000*%
G04 #@! TD*
G04 #@! TA.AperFunction,SMDPad,CuDef*
%ADD40RoundRect,0.174999X-0.825001X0.000000X-0.825001X0.000000X0.825001X0.000000X0.825001X0.000000X0*%
G04 #@! TD*
G04 #@! TA.AperFunction,SMDPad,CuDef*
%ADD41RoundRect,0.250000X1.250000X0.550000X-1.250000X0.550000X-1.250000X-0.550000X1.250000X-0.550000X0*%
G04 #@! TD*
G04 #@! TA.AperFunction,SMDPad,CuDef*
%ADD42RoundRect,0.250000X0.362500X1.075000X-0.362500X1.075000X-0.362500X-1.075000X0.362500X-1.075000X0*%
G04 #@! TD*
G04 #@! TA.AperFunction,SMDPad,CuDef*
%ADD43R,1.100000X1.100000*%
G04 #@! TD*
G04 #@! TA.AperFunction,ViaPad*
%ADD44C,0.800000*%
G04 #@! TD*
G04 #@! TA.AperFunction,ViaPad*
%ADD45C,1.270000*%
G04 #@! TD*
G04 #@! TA.AperFunction,Conductor*
%ADD46C,0.254000*%
G04 #@! TD*
G04 #@! TA.AperFunction,Conductor*
%ADD47C,0.250000*%
G04 #@! TD*
G04 #@! TA.AperFunction,Conductor*
%ADD48C,0.762000*%
G04 #@! TD*
G04 #@! TA.AperFunction,Conductor*
%ADD49C,0.200000*%
G04 #@! TD*
G04 APERTURE END LIST*
D10*
X116817700Y-119917000D03*
X112192700Y-119917000D03*
D11*
X126238000Y-116866500D03*
X126238000Y-112241500D03*
D12*
X137294000Y-111760000D03*
X134994000Y-111760000D03*
D13*
X114300000Y-90170000D03*
D14*
X116840000Y-90170000D03*
X119380000Y-90170000D03*
X121920000Y-90170000D03*
X124460000Y-90170000D03*
X127000000Y-90170000D03*
X129540000Y-90170000D03*
X132080000Y-90170000D03*
X134620000Y-90170000D03*
X137160000Y-90170000D03*
X139700000Y-90170000D03*
D15*
X155827900Y-123494800D03*
X160452900Y-123494800D03*
D16*
X160528000Y-113056000D03*
X160528000Y-97256000D03*
D17*
X160528000Y-105156000D03*
D18*
X168845000Y-120015000D03*
X168845000Y-118745000D03*
X168845000Y-117475000D03*
X168845000Y-116205000D03*
X163895000Y-116205000D03*
X163895000Y-117475000D03*
X163895000Y-118745000D03*
X163895000Y-120015000D03*
D19*
X145050000Y-89982000D03*
X145050000Y-91882000D03*
X147050000Y-90932000D03*
D20*
X152400000Y-90905500D03*
X152400000Y-95530500D03*
D21*
X140500000Y-114000000D03*
X140500000Y-116950000D03*
X143510000Y-114095000D03*
X143510000Y-117045000D03*
D22*
X137950000Y-121500000D03*
X135000000Y-121500000D03*
D23*
X163554000Y-124968000D03*
X167154000Y-124968000D03*
D24*
X171196000Y-119980000D03*
X171196000Y-118780000D03*
D10*
X153696500Y-113284000D03*
X149071500Y-113284000D03*
D25*
X143203000Y-95758000D03*
X147828000Y-95758000D03*
D19*
X128794000Y-116144000D03*
X128794000Y-118044000D03*
X130794000Y-117094000D03*
D21*
X132842000Y-114095000D03*
X132842000Y-117045000D03*
D26*
X137144000Y-114064000D03*
D27*
X137144000Y-114349000D03*
X136644000Y-114349000D03*
D26*
X136644000Y-114064000D03*
D27*
X136144000Y-114349000D03*
D26*
X136144000Y-114064000D03*
D27*
X135644000Y-114349000D03*
D26*
X135644000Y-114064000D03*
X135144000Y-114064000D03*
D27*
X135144000Y-114349000D03*
D26*
X135144000Y-117584000D03*
D27*
X135144000Y-117299000D03*
D26*
X135644000Y-117584000D03*
D27*
X135644000Y-117299000D03*
X136144000Y-117299000D03*
D26*
X136144000Y-117584000D03*
X136644000Y-117584000D03*
D27*
X136644000Y-117299000D03*
D26*
X137144000Y-117584000D03*
D27*
X137144000Y-117299000D03*
D28*
X134594000Y-115574000D03*
D29*
X134514000Y-115574000D03*
X137774000Y-116074000D03*
D30*
X136894000Y-116324000D03*
D31*
X136779000Y-115374000D03*
X136779000Y-116274000D03*
D30*
X135394000Y-115324000D03*
D31*
X135509000Y-115374000D03*
D28*
X137694000Y-116074000D03*
D29*
X137774000Y-115574000D03*
D30*
X136144000Y-115824000D03*
D28*
X137694000Y-115574000D03*
D29*
X134514000Y-116074000D03*
D30*
X135394000Y-116324000D03*
D28*
X134594000Y-116074000D03*
D30*
X136894000Y-115324000D03*
D32*
X136144000Y-115824000D03*
D31*
X135509000Y-116274000D03*
D10*
X133122500Y-121412000D03*
X128497500Y-121412000D03*
D22*
X143816600Y-123088400D03*
X140866600Y-123088400D03*
D33*
X120820000Y-115128000D03*
X120820000Y-116078000D03*
X120820000Y-117028000D03*
X123020000Y-117028000D03*
X123020000Y-116078000D03*
X123020000Y-115128000D03*
D15*
X147852300Y-123291600D03*
X152477300Y-123291600D03*
D34*
X126441200Y-108661200D03*
D35*
X123901200Y-108661200D03*
D36*
X114005200Y-102997000D03*
X172005200Y-125997000D03*
D37*
X132395200Y-107572000D03*
X132395200Y-112197000D03*
D38*
X138595200Y-107697000D03*
X136770200Y-107697000D03*
D39*
X141495200Y-110397000D03*
X139595200Y-110397000D03*
X140545200Y-112397000D03*
D40*
X143136800Y-106433000D03*
X143136800Y-107083001D03*
X143136800Y-107733000D03*
X143136800Y-108383001D03*
X148936801Y-108383001D03*
X148936801Y-107733000D03*
X148936801Y-107083001D03*
X148936801Y-106433000D03*
D41*
X118055200Y-114137000D03*
X113655200Y-114137000D03*
D19*
X124120400Y-120004800D03*
X124120400Y-121904800D03*
X126120400Y-120954800D03*
D42*
X160045200Y-90797000D03*
X155420200Y-90797000D03*
X119957700Y-109017000D03*
X115332700Y-109017000D03*
D43*
X121865200Y-123617000D03*
X121865200Y-120817000D03*
X119155200Y-123637000D03*
X119155200Y-120837000D03*
D36*
X172005200Y-102997000D03*
X114005200Y-125997000D03*
D34*
X118870000Y-104250000D03*
D35*
X118870000Y-101710000D03*
X121410000Y-104250000D03*
X121410000Y-101710000D03*
X123950000Y-104250000D03*
X123950000Y-101710000D03*
X126490000Y-104250000D03*
X126490000Y-101710000D03*
X129030000Y-104250000D03*
X129030000Y-101710000D03*
X131570000Y-104250000D03*
X131570000Y-101710000D03*
X134110000Y-104250000D03*
X134110000Y-101710000D03*
X136650000Y-104250000D03*
X136650000Y-101710000D03*
X139190000Y-104250000D03*
X139190000Y-101710000D03*
X141730000Y-104250000D03*
X141730000Y-101710000D03*
X144270000Y-104250000D03*
X144270000Y-101710000D03*
X146810000Y-104250000D03*
X146810000Y-101710000D03*
X149350000Y-104250000D03*
X149350000Y-101710000D03*
D44*
X144605902Y-110382382D03*
D45*
X143510000Y-119634000D03*
X113170200Y-107697000D03*
X155194000Y-116586000D03*
X119126000Y-96520000D03*
X170180000Y-122428000D03*
X129540000Y-98044000D03*
D44*
X138684000Y-114808000D03*
X138684000Y-116840000D03*
X140512800Y-106375200D03*
X127914400Y-106121200D03*
X126593600Y-122326400D03*
X128473200Y-124307600D03*
X145295200Y-123997000D03*
X145195200Y-115197000D03*
X144070200Y-111772000D03*
X159004000Y-121666000D03*
X152704899Y-97215541D03*
X145707000Y-125476000D03*
X123550260Y-118156140D03*
X139032860Y-109159340D03*
X131195200Y-115522000D03*
X118978100Y-118869900D03*
X120505200Y-124997000D03*
D46*
X135000000Y-117368000D02*
X135144000Y-117224000D01*
X135644000Y-117224000D02*
X136144000Y-117224000D01*
D47*
X133122500Y-121412000D02*
X134912000Y-121412000D01*
D46*
X135000000Y-121500000D02*
X135000000Y-117368000D01*
D47*
X134912000Y-121412000D02*
X135000000Y-121500000D01*
D46*
X135644000Y-117224000D02*
X135144000Y-117224000D01*
D48*
X143203000Y-93673000D02*
X139700000Y-90170000D01*
X143203000Y-95758000D02*
X143203000Y-93673000D01*
D46*
X153696500Y-113284000D02*
X153696500Y-111959000D01*
X153696500Y-111959000D02*
X154070022Y-111585478D01*
X151995018Y-88247000D02*
X150162008Y-86413990D01*
X154070022Y-98303578D02*
X158060809Y-94312791D01*
X154070022Y-111585478D02*
X154070022Y-98303578D01*
X150162008Y-86413990D02*
X128216010Y-86413990D01*
D47*
X158060809Y-94312791D02*
X158060809Y-89987609D01*
X158060809Y-89987609D02*
X156320200Y-88247000D01*
X156320200Y-88247000D02*
X151995018Y-88247000D01*
D46*
X128216010Y-86413990D02*
X124460000Y-90170000D01*
D47*
X135285001Y-104846599D02*
X134315200Y-105816400D01*
X135285001Y-103875997D02*
X135285001Y-104846599D01*
X134315200Y-105816400D02*
X130810000Y-105816400D01*
X130810000Y-105816400D02*
X127965200Y-108661200D01*
X127965200Y-108661200D02*
X126441200Y-108661200D01*
X138014999Y-102885001D02*
X136275997Y-102885001D01*
X139190000Y-101710000D02*
X138014999Y-102885001D01*
X136275997Y-102885001D02*
X135285001Y-103875997D01*
X123182200Y-112241500D02*
X126238000Y-112241500D01*
D46*
X131258800Y-104250000D02*
X128473200Y-107035600D01*
D47*
X125781798Y-107035600D02*
X128473200Y-107035600D01*
X126238000Y-112241500D02*
X125266199Y-111269699D01*
X125266199Y-111269699D02*
X125266199Y-107551199D01*
X119957700Y-109017000D02*
X123182200Y-112241500D01*
X125266199Y-107551199D02*
X125781798Y-107035600D01*
D46*
X131570000Y-104250000D02*
X131258800Y-104250000D01*
X135644000Y-112410000D02*
X135644000Y-114424000D01*
X134994000Y-111760000D02*
X135644000Y-112410000D01*
X136644000Y-114424000D02*
X136644000Y-112410000D01*
X136644000Y-112410000D02*
X137294000Y-111760000D01*
D49*
X170815000Y-118780000D02*
X168880000Y-118780000D01*
X168880000Y-118780000D02*
X168845000Y-118745000D01*
D47*
X168845000Y-120015000D02*
X171161000Y-120015000D01*
X171161000Y-120015000D02*
X171196000Y-119980000D01*
D48*
X119126000Y-96520000D02*
X119126000Y-96520000D01*
D47*
X143095200Y-107772000D02*
X143095200Y-108422001D01*
D49*
X170503999Y-120580001D02*
X170503999Y-121088001D01*
D47*
X136144000Y-110145800D02*
X136144000Y-114349000D01*
D48*
X145920000Y-98422000D02*
X151345200Y-98422000D01*
D47*
X165100000Y-105156000D02*
X160528000Y-105156000D01*
X148411200Y-117983000D02*
X148411200Y-117260100D01*
D48*
X143510000Y-117045000D02*
X143510000Y-119634000D01*
D46*
X155828999Y-115951001D02*
X155194000Y-116586000D01*
D47*
X139881200Y-122428000D02*
X140541600Y-123088400D01*
X148411200Y-117983000D02*
X153797000Y-117983000D01*
D49*
X172650001Y-120396000D02*
X172466000Y-120580001D01*
D48*
X152346011Y-114636036D02*
X154295975Y-116586000D01*
D46*
X162254000Y-115622000D02*
X156158000Y-115622000D01*
D47*
X123914400Y-121904800D02*
X123392200Y-122427000D01*
D48*
X151345200Y-98422000D02*
X153162000Y-100238800D01*
D46*
X167259000Y-116205000D02*
X166116000Y-115062000D01*
D48*
X113345200Y-111172000D02*
X113284000Y-111233200D01*
D46*
X139598999Y-117851001D02*
X140500000Y-116950000D01*
D49*
X172650001Y-120396000D02*
X172650001Y-117939998D01*
X170309999Y-117944999D02*
X170110008Y-118144990D01*
D47*
X166878000Y-124692000D02*
X167154000Y-124968000D01*
D46*
X166878000Y-117348000D02*
X168021000Y-116205000D01*
D49*
X167833598Y-118144990D02*
X167569990Y-118408598D01*
D46*
X128049999Y-89120001D02*
X127000000Y-90170000D01*
D47*
X165627999Y-100056001D02*
X160528000Y-105156000D01*
X144605902Y-109852103D02*
X144605902Y-110382382D01*
X172590001Y-112646001D02*
X165100000Y-105156000D01*
D48*
X132842000Y-117045000D02*
X134063000Y-115824000D01*
X134063000Y-115824000D02*
X136144000Y-115824000D01*
D46*
X166116000Y-115062000D02*
X162814000Y-115062000D01*
D48*
X136719000Y-115824000D02*
X136144000Y-115249000D01*
D49*
X170110008Y-118144990D02*
X167833598Y-118144990D01*
D47*
X138000000Y-121450000D02*
X137950000Y-121500000D01*
X153797000Y-117983000D02*
X155194000Y-116586000D01*
X165627999Y-96379799D02*
X165627999Y-100056001D01*
D49*
X170503999Y-122104001D02*
X170180000Y-122428000D01*
D47*
X172590001Y-117944999D02*
X172590001Y-112646001D01*
D48*
X137094000Y-115824000D02*
X136719000Y-115824000D01*
D49*
X172650001Y-118004999D02*
X172590001Y-117944999D01*
X170158000Y-121942000D02*
X169545000Y-122555000D01*
X170180000Y-121942000D02*
X170158000Y-121942000D01*
D46*
X162814000Y-115062000D02*
X162254000Y-115622000D01*
D47*
X148411200Y-117260100D02*
X146583400Y-115432300D01*
D46*
X127667001Y-102887001D02*
X125127001Y-102887001D01*
D48*
X115562700Y-122427000D02*
X113472700Y-120337000D01*
D47*
X114490200Y-109017000D02*
X113170200Y-107697000D01*
D48*
X140500000Y-116950000D02*
X139374000Y-115824000D01*
D47*
X137922000Y-122428000D02*
X139881200Y-122428000D01*
D46*
X125127001Y-102887001D02*
X123950000Y-101710000D01*
X168845000Y-116205000D02*
X167259000Y-116205000D01*
D48*
X116840000Y-90170000D02*
X119126000Y-92456000D01*
D49*
X167833598Y-120615010D02*
X169856402Y-120615010D01*
D47*
X135920201Y-109922001D02*
X136144000Y-110145800D01*
D48*
X113472700Y-120337000D02*
X113284000Y-120148300D01*
X113284000Y-107810800D02*
X113170200Y-107697000D01*
D46*
X136144000Y-115824000D02*
X136144000Y-114424000D01*
D49*
X167569990Y-120351402D02*
X167833598Y-120615010D01*
D48*
X115608210Y-116090010D02*
X113655200Y-114137000D01*
X113284000Y-120148300D02*
X113284000Y-119178200D01*
D47*
X136644000Y-117299000D02*
X136644000Y-118610000D01*
X160045200Y-90797000D02*
X165627999Y-96379799D01*
D48*
X137922000Y-119888000D02*
X140765000Y-117045000D01*
D46*
X156158000Y-115622000D02*
X155828999Y-115951001D01*
D47*
X124120400Y-121904800D02*
X123914400Y-121904800D01*
D46*
X129030000Y-104250000D02*
X127667001Y-102887001D01*
D48*
X137922000Y-122428000D02*
X137031990Y-123318010D01*
X139374000Y-115824000D02*
X136144000Y-115824000D01*
D47*
X136644000Y-118610000D02*
X137922000Y-119888000D01*
D49*
X167154000Y-124968000D02*
X170180000Y-121942000D01*
D48*
X119126000Y-92456000D02*
X119126000Y-96520000D01*
X137031990Y-123318010D02*
X124283210Y-123318010D01*
X135194000Y-115824000D02*
X135569000Y-115824000D01*
D47*
X132395200Y-112197000D02*
X132395200Y-111584500D01*
D48*
X145050000Y-91882000D02*
X145050000Y-97552000D01*
X145050000Y-97552000D02*
X145920000Y-98422000D01*
X153162000Y-110553988D02*
X152346011Y-111369977D01*
D49*
X167569990Y-118408598D02*
X167569990Y-120351402D01*
D47*
X143136800Y-108383001D02*
X144605902Y-109852103D01*
D49*
X170503999Y-120580001D02*
X171655001Y-120580001D01*
D48*
X152346011Y-111369977D02*
X152346011Y-114636036D01*
X140765000Y-117045000D02*
X143510000Y-117045000D01*
D49*
X169974999Y-120580001D02*
X170503999Y-120580001D01*
D47*
X113284000Y-119178200D02*
X112931500Y-119178200D01*
X134057699Y-109922001D02*
X135920201Y-109922001D01*
D49*
X172466000Y-120580001D02*
X171655001Y-120580001D01*
X172590001Y-117944999D02*
X170309999Y-117944999D01*
D46*
X168021000Y-116205000D02*
X168845000Y-116205000D01*
D48*
X137922000Y-119888000D02*
X137922000Y-122428000D01*
D49*
X170503999Y-121088001D02*
X170503999Y-121227999D01*
D48*
X153162000Y-100238800D02*
X153162000Y-110553988D01*
X123392200Y-122427000D02*
X115562700Y-122427000D01*
D47*
X132395200Y-111584500D02*
X134057699Y-109922001D01*
D48*
X120820000Y-116090010D02*
X115608210Y-116090010D01*
D47*
X112931500Y-119178200D02*
X112192700Y-119917000D01*
X166878000Y-117348000D02*
X166878000Y-124692000D01*
D49*
X170503999Y-121088001D02*
X170503999Y-122104001D01*
D48*
X113284000Y-119178200D02*
X113284000Y-111233200D01*
X154295975Y-116586000D02*
X155194000Y-116586000D01*
X135569000Y-115824000D02*
X136144000Y-115249000D01*
X124283210Y-123318010D02*
X123392200Y-122427000D01*
X129540000Y-98298000D02*
X127000000Y-95758000D01*
X113284000Y-111233200D02*
X113284000Y-107810800D01*
X127000000Y-95758000D02*
X127000000Y-90170000D01*
D47*
X115332700Y-109017000D02*
X114490200Y-109017000D01*
D48*
X143510000Y-114095000D02*
X148260500Y-114095000D01*
D47*
X143764000Y-115443000D02*
X143764000Y-114349000D01*
X151016250Y-125616250D02*
X151016250Y-124752650D01*
D48*
X132588000Y-93218000D02*
X129540000Y-90170000D01*
D47*
X142240000Y-122576810D02*
X143404810Y-121412000D01*
D48*
X135890000Y-93218000D02*
X137160000Y-91948000D01*
X138966008Y-99793992D02*
X123326008Y-99793992D01*
D46*
X138300000Y-117224000D02*
X138684000Y-116840000D01*
X163602500Y-120307500D02*
X163895000Y-120015000D01*
D47*
X151410500Y-125222000D02*
X158725700Y-125222000D01*
D46*
X145617500Y-117296500D02*
X145617500Y-120420700D01*
D47*
X146050000Y-126492000D02*
X144780000Y-126492000D01*
D46*
X143764000Y-115443000D02*
X145617500Y-117296500D01*
D48*
X138966008Y-99793992D02*
X138966008Y-99596008D01*
D46*
X150699300Y-125933200D02*
X151016250Y-125616250D01*
D48*
X149071500Y-113284000D02*
X152020200Y-110335300D01*
X138966008Y-99596008D02*
X132588000Y-93218000D01*
D46*
X138684000Y-114808000D02*
X137876000Y-114000000D01*
D48*
X140500000Y-114000000D02*
X137714000Y-114000000D01*
D46*
X137144000Y-117224000D02*
X138300000Y-117224000D01*
D48*
X132588000Y-93218000D02*
X135890000Y-93218000D01*
X118900008Y-99793992D02*
X123326008Y-99793992D01*
X140500000Y-114000000D02*
X143415000Y-114000000D01*
D46*
X146608800Y-125933200D02*
X150699300Y-125933200D01*
D47*
X143764000Y-114349000D02*
X143510000Y-114095000D01*
X142849600Y-124663200D02*
X142240000Y-124053600D01*
D48*
X123326008Y-99793992D02*
X121410000Y-101710000D01*
D47*
X142240000Y-124053600D02*
X142240000Y-122576810D01*
D48*
X152020200Y-110335300D02*
X152020200Y-100772000D01*
X143415000Y-114000000D02*
X143510000Y-114095000D01*
X137714000Y-114000000D02*
X137414000Y-114300000D01*
D47*
X158725700Y-125222000D02*
X160452900Y-123494800D01*
D48*
X118870000Y-101710000D02*
X118870000Y-99824000D01*
D46*
X163602500Y-124460000D02*
X163602500Y-120307500D01*
X146050000Y-126492000D02*
X146608800Y-125933200D01*
D47*
X144626200Y-121412000D02*
X145617500Y-120420700D01*
D46*
X151016250Y-125616250D02*
X151410500Y-125222000D01*
D48*
X152020200Y-100772000D02*
X150745200Y-99497000D01*
X148260500Y-114095000D02*
X149071500Y-113284000D01*
X150745200Y-99497000D02*
X139263000Y-99497000D01*
X139263000Y-99497000D02*
X138966008Y-99793992D01*
D47*
X143404810Y-121412000D02*
X144626200Y-121412000D01*
X162180100Y-125222000D02*
X162840500Y-125222000D01*
X160452900Y-123494800D02*
X162180100Y-125222000D01*
D48*
X137160000Y-91948000D02*
X137160000Y-90170000D01*
D47*
X144780000Y-126492000D02*
X142849600Y-124663200D01*
X151016250Y-124752650D02*
X152477300Y-123291600D01*
X162840500Y-125222000D02*
X163602500Y-124460000D01*
D48*
X118870000Y-99824000D02*
X118900008Y-99793992D01*
D47*
X144295200Y-106472000D02*
X145727600Y-107904400D01*
X145727600Y-108495000D02*
X146388000Y-109155400D01*
X144295200Y-106472000D02*
X143175800Y-106472000D01*
X145727600Y-107904400D02*
X145727600Y-108495000D01*
X120773620Y-107253620D02*
X122493620Y-107253620D01*
X140395200Y-112597000D02*
X144293202Y-112597000D01*
X146388000Y-109155400D02*
X149831000Y-109155400D01*
X122493620Y-107253620D02*
X123901200Y-108661200D01*
X140512800Y-106375200D02*
X143079000Y-106375200D01*
X123901200Y-108661200D02*
X123901200Y-107289600D01*
X150423989Y-108562411D02*
X150423989Y-106920188D01*
X145288000Y-111602202D02*
X146163000Y-110727202D01*
X118870000Y-105350000D02*
X120773620Y-107253620D01*
X146388000Y-110502202D02*
X146388000Y-109155400D01*
X150423989Y-106920188D02*
X149936801Y-106433000D01*
X118870000Y-104250000D02*
X118870000Y-105350000D01*
X143079000Y-106375200D02*
X143136800Y-106433000D01*
X149936801Y-106433000D02*
X148936801Y-106433000D01*
X146163000Y-110727202D02*
X146388000Y-110502202D01*
X125069600Y-106121200D02*
X127914400Y-106121200D01*
X149831000Y-109155400D02*
X150423989Y-108562411D01*
X144293202Y-112597000D02*
X145288000Y-111602202D01*
X123901200Y-107289600D02*
X125069600Y-106121200D01*
X145878000Y-89154000D02*
X145050000Y-89982000D01*
X148336000Y-89154000D02*
X150556000Y-91374000D01*
X151931500Y-91374000D02*
X152400000Y-90905500D01*
X148336000Y-89154000D02*
X145878000Y-89154000D01*
X150556000Y-91374000D02*
X151931500Y-91374000D01*
D48*
X147828000Y-91710000D02*
X147050000Y-90932000D01*
X147828000Y-95758000D02*
X147828000Y-91710000D01*
D47*
X126593600Y-122326400D02*
X126644400Y-122377200D01*
X146456400Y-120773600D02*
X146456400Y-116058200D01*
X123584200Y-125336000D02*
X127292400Y-125336000D01*
X143816600Y-123088400D02*
X144386600Y-123088400D01*
X145295200Y-121934800D02*
X146456400Y-120773600D01*
X142870200Y-111772000D02*
X141495200Y-110397000D01*
X126120400Y-121853200D02*
X126593600Y-122326400D01*
X145595200Y-115197000D02*
X145195200Y-115197000D01*
X144386600Y-123088400D02*
X145295200Y-123997000D01*
X145295200Y-123997000D02*
X145295200Y-121934800D01*
X146456400Y-116058200D02*
X145595200Y-115197000D01*
X128320800Y-124307600D02*
X128473200Y-124307600D01*
X121865200Y-123617000D02*
X123584200Y-125336000D01*
X127292400Y-125336000D02*
X128320800Y-124307600D01*
X126120400Y-120954800D02*
X126120400Y-121853200D01*
X144070200Y-111772000D02*
X142870200Y-111772000D01*
D46*
X125832990Y-115926990D02*
X128830990Y-115926990D01*
D47*
X125982610Y-115926990D02*
X125832990Y-115926990D01*
D46*
X123955010Y-115926990D02*
X125832990Y-115926990D01*
X123804000Y-116078000D02*
X123955010Y-115926990D01*
X123020000Y-116078000D02*
X123804000Y-116078000D01*
X163195000Y-117475000D02*
X163895000Y-117475000D01*
D47*
X155827900Y-123494800D02*
X157175200Y-123494800D01*
D46*
X159004000Y-121666000D02*
X163195000Y-117475000D01*
D47*
X159004000Y-121666000D02*
X157480000Y-123190000D01*
X157175200Y-123494800D02*
X157480000Y-123190000D01*
X145139391Y-105572000D02*
X143670200Y-105572000D01*
X148936801Y-108383001D02*
X148761801Y-108558001D01*
X143094999Y-104996799D02*
X143094999Y-103685999D01*
X143895997Y-102885001D02*
X145634999Y-102885001D01*
X143094999Y-103685999D02*
X143895997Y-102885001D01*
X143670200Y-105572000D02*
X143094999Y-104996799D01*
X148761801Y-108558001D02*
X148125392Y-108558001D01*
X145634999Y-102885001D02*
X146810000Y-101710000D01*
X148125392Y-108558001D02*
X145139391Y-105572000D01*
X147035000Y-106181200D02*
X147035000Y-103525000D01*
X148936801Y-107083001D02*
X147936801Y-107083001D01*
X147936801Y-107083001D02*
X147035000Y-106181200D01*
X147936801Y-107733000D02*
X144495000Y-104291199D01*
X148936801Y-107733000D02*
X147936801Y-107733000D01*
X144270000Y-105016199D02*
X144270000Y-104250000D01*
D46*
X152400000Y-95530500D02*
X152400000Y-96910642D01*
D47*
X155420200Y-90797000D02*
X155420200Y-92510300D01*
X155420200Y-92510300D02*
X152400000Y-95530500D01*
D46*
X152400000Y-96910642D02*
X152704899Y-97215541D01*
D47*
X137757690Y-108909490D02*
X137757690Y-105357690D01*
X139445200Y-110597000D02*
X137757690Y-108909490D01*
X137757690Y-105357690D02*
X136650000Y-104250000D01*
D46*
X147852300Y-123291600D02*
X147852300Y-123330700D01*
D47*
X149809200Y-121412000D02*
X149731900Y-121412000D01*
D46*
X160756600Y-116205000D02*
X155549600Y-121412000D01*
X155549600Y-121412000D02*
X149809200Y-121412000D01*
X163895000Y-116205000D02*
X160756600Y-116205000D01*
D47*
X149731900Y-121412000D02*
X147852300Y-123291600D01*
D46*
X147852300Y-123330700D02*
X145707000Y-125476000D01*
X123181500Y-116866500D02*
X123020000Y-117028000D01*
D47*
X126238000Y-117887200D02*
X124120400Y-120004800D01*
D46*
X126238000Y-116866500D02*
X123181500Y-116866500D01*
D47*
X126238000Y-116866500D02*
X126238000Y-117887200D01*
D48*
X117495200Y-102878998D02*
X117438999Y-102935199D01*
X117495200Y-93365200D02*
X117495200Y-100966918D01*
X117495200Y-105621002D02*
X117495200Y-111553972D01*
X123764000Y-114384000D02*
X130259000Y-114384000D01*
X117495200Y-102453082D02*
X117495200Y-102878998D01*
X117438999Y-105564801D02*
X117495200Y-105621002D01*
X117438999Y-102935199D02*
X117438999Y-105564801D01*
D47*
X130018999Y-114624001D02*
X130018999Y-116555391D01*
D46*
X119380000Y-90170000D02*
X120396000Y-91186000D01*
D48*
X118826714Y-112885486D02*
X121069228Y-115128000D01*
X121069228Y-115128000D02*
X123020000Y-115128000D01*
X117495200Y-111553972D02*
X118826714Y-112885486D01*
D47*
X118826714Y-113365486D02*
X118055200Y-114137000D01*
X130259000Y-114384000D02*
X130018999Y-114624001D01*
D48*
X117495200Y-100966918D02*
X117438999Y-101023119D01*
D47*
X128607600Y-117593990D02*
X128475795Y-117725795D01*
D48*
X131621000Y-113792000D02*
X134587000Y-113792000D01*
X134922990Y-114127990D02*
X134922990Y-114349000D01*
X114300000Y-90170000D02*
X117495200Y-93365200D01*
X117438999Y-101023119D02*
X117438999Y-102396881D01*
X117438999Y-102396881D02*
X117495200Y-102453082D01*
D47*
X130018999Y-116555391D02*
X128980400Y-117593990D01*
D46*
X120396000Y-91186000D02*
X120396000Y-97536000D01*
D48*
X131029000Y-114384000D02*
X131621000Y-113792000D01*
D47*
X118826714Y-112885486D02*
X118826714Y-113365486D01*
D46*
X120396000Y-97536000D02*
X118938999Y-98993001D01*
D47*
X128980400Y-117593990D02*
X128607600Y-117593990D01*
D48*
X123020000Y-115128000D02*
X123764000Y-114384000D01*
X130259000Y-114384000D02*
X131029000Y-114384000D01*
D46*
X118938999Y-98993001D02*
X117281001Y-98993001D01*
D48*
X134587000Y-113792000D02*
X134922990Y-114127990D01*
D47*
X119155200Y-120837000D02*
X121845200Y-120837000D01*
X123550260Y-118156140D02*
X123029860Y-118156140D01*
X123029860Y-118156140D02*
X121865200Y-119320800D01*
X121865200Y-119320800D02*
X121865200Y-120817000D01*
X121845200Y-120837000D02*
X121865200Y-120817000D01*
D46*
X170688000Y-116840000D02*
X170688000Y-114804200D01*
D47*
X154745200Y-108747000D02*
X158604190Y-112605990D01*
X154745200Y-101747000D02*
X154745200Y-108747000D01*
D46*
X160528000Y-97256000D02*
X159512500Y-97256000D01*
D47*
X160714400Y-112605990D02*
X160846205Y-112737795D01*
X162105410Y-113997000D02*
X160978010Y-112869600D01*
X169880800Y-113997000D02*
X162105410Y-113997000D01*
X158604190Y-112605990D02*
X160714400Y-112605990D01*
X160528000Y-97256000D02*
X159236200Y-97256000D01*
D46*
X170053000Y-117475000D02*
X170688000Y-116840000D01*
D47*
X170688000Y-114804200D02*
X169880800Y-113997000D01*
X159236200Y-97256000D02*
X154745200Y-101747000D01*
D46*
X170688000Y-114804200D02*
X170688000Y-115189800D01*
X168845000Y-117475000D02*
X170053000Y-117475000D01*
D47*
X136645200Y-107572000D02*
X136770200Y-107697000D01*
X137295200Y-109301198D02*
X138295200Y-110301198D01*
X138295200Y-110301198D02*
X138295200Y-111097000D01*
X137295200Y-107709500D02*
X137295200Y-109301198D01*
X140495200Y-110922000D02*
X140495200Y-108467476D01*
X138295200Y-111097000D02*
X138895200Y-111697000D01*
X136770200Y-107697000D02*
X137282700Y-107697000D01*
X139720200Y-111697000D02*
X140495200Y-110922000D01*
X140495200Y-108467476D02*
X141879675Y-107083001D01*
X137282700Y-107697000D02*
X137295200Y-107709500D01*
X141879675Y-107083001D02*
X143136800Y-107083001D01*
X132395200Y-107572000D02*
X136645200Y-107572000D01*
X138895200Y-111697000D02*
X139720200Y-111697000D01*
X131195200Y-116692800D02*
X130794000Y-117094000D01*
X128794000Y-121115500D02*
X128497500Y-121412000D01*
X131195200Y-115522000D02*
X131195200Y-116692800D01*
X131029000Y-116859000D02*
X130794000Y-117094000D01*
X130794000Y-117094000D02*
X130794000Y-119115500D01*
X138595200Y-108721680D02*
X139032860Y-109159340D01*
X138595200Y-107697000D02*
X138595200Y-108721680D01*
X130794000Y-119115500D02*
X128497500Y-121412000D01*
D46*
X118978100Y-118869900D02*
X120820000Y-117028000D01*
X117931000Y-119917000D02*
X118978100Y-118869900D01*
D47*
X119155200Y-124087000D02*
X120065200Y-124997000D01*
X120065200Y-124997000D02*
X120505200Y-124997000D01*
D46*
X116817700Y-119917000D02*
X117931000Y-119917000D01*
D47*
X119155200Y-123637000D02*
X119155200Y-124087000D01*
M02*
