G04 #@! TF.GenerationSoftware,KiCad,Pcbnew,5.1.10*
G04 #@! TF.CreationDate,2021-09-11T21:58:46-07:00*
G04 #@! TF.ProjectId,sticky_pi_hat,73746963-6b79-45f7-9069-5f6861742e6b,rev?*
G04 #@! TF.SameCoordinates,Original*
G04 #@! TF.FileFunction,Soldermask,Bot*
G04 #@! TF.FilePolarity,Negative*
%FSLAX46Y46*%
G04 Gerber Fmt 4.6, Leading zero omitted, Abs format (unit mm)*
G04 Created by KiCad (PCBNEW 5.1.10) date 2021-09-11 21:58:46*
%MOMM*%
%LPD*%
G01*
G04 APERTURE LIST*
%ADD10C,0.600000*%
%ADD11C,5.400000*%
%ADD12O,1.700000X1.700000*%
%ADD13R,1.700000X1.700000*%
%ADD14C,2.100000*%
%ADD15R,2.100000X2.100000*%
G04 APERTURE END LIST*
D10*
X135394000Y-115324000D03*
X136894000Y-115324000D03*
X136894000Y-116324000D03*
X136144000Y-115824000D03*
X135394000Y-116324000D03*
D11*
X172000000Y-103000000D03*
X114000000Y-103000000D03*
X172000000Y-126000000D03*
X114000000Y-126000000D03*
D12*
X141730000Y-101710000D03*
X141730000Y-104250000D03*
X139190000Y-101710000D03*
X139190000Y-104250000D03*
X136650000Y-101710000D03*
X136650000Y-104250000D03*
X134110000Y-101710000D03*
X134110000Y-104250000D03*
X131570000Y-101710000D03*
X131570000Y-104250000D03*
X129030000Y-101710000D03*
X129030000Y-104250000D03*
X126490000Y-101710000D03*
X126490000Y-104250000D03*
X123950000Y-101710000D03*
X123950000Y-104250000D03*
X121410000Y-101710000D03*
X121410000Y-104250000D03*
X118870000Y-101710000D03*
D13*
X118870000Y-104250000D03*
D14*
X139700000Y-90170000D03*
X137160000Y-90170000D03*
X134620000Y-90170000D03*
X132080000Y-90170000D03*
X129540000Y-90170000D03*
X127000000Y-90170000D03*
X124460000Y-90170000D03*
X121920000Y-90170000D03*
X119380000Y-90170000D03*
X116840000Y-90170000D03*
D15*
X114300000Y-90170000D03*
M02*
