G04 #@! TF.GenerationSoftware,KiCad,Pcbnew,5.1.10*
G04 #@! TF.CreationDate,2021-09-11T21:58:46-07:00*
G04 #@! TF.ProjectId,sticky_pi_hat,73746963-6b79-45f7-9069-5f6861742e6b,rev?*
G04 #@! TF.SameCoordinates,Original*
G04 #@! TF.FileFunction,Copper,L1,Top*
G04 #@! TF.FilePolarity,Positive*
%FSLAX46Y46*%
G04 Gerber Fmt 4.6, Leading zero omitted, Abs format (unit mm)*
G04 Created by KiCad (PCBNEW 5.1.10) date 2021-09-11 21:58:46*
%MOMM*%
%LPD*%
G01*
G04 APERTURE LIST*
G04 #@! TA.AperFunction,SMDPad,CuDef*
%ADD10C,10.200000*%
G04 #@! TD*
G04 #@! TA.AperFunction,SMDPad,CuDef*
%ADD11R,3.300000X3.500000*%
G04 #@! TD*
G04 #@! TA.AperFunction,SMDPad,CuDef*
%ADD12R,1.200000X0.600000*%
G04 #@! TD*
G04 #@! TA.AperFunction,ComponentPad*
%ADD13C,0.600000*%
G04 #@! TD*
G04 #@! TA.AperFunction,SMDPad,CuDef*
%ADD14O,0.280000X0.850000*%
G04 #@! TD*
G04 #@! TA.AperFunction,SMDPad,CuDef*
%ADD15R,0.280000X0.280000*%
G04 #@! TD*
G04 #@! TA.AperFunction,SMDPad,CuDef*
%ADD16R,2.400000X1.650000*%
G04 #@! TD*
G04 #@! TA.AperFunction,SMDPad,CuDef*
%ADD17R,1.050000X0.680000*%
G04 #@! TD*
G04 #@! TA.AperFunction,SMDPad,CuDef*
%ADD18R,0.500000X0.260000*%
G04 #@! TD*
G04 #@! TA.AperFunction,SMDPad,CuDef*
%ADD19R,0.700000X0.280000*%
G04 #@! TD*
G04 #@! TA.AperFunction,ComponentPad*
%ADD20C,5.400000*%
G04 #@! TD*
G04 #@! TA.AperFunction,SMDPad,CuDef*
%ADD21R,0.900000X0.800000*%
G04 #@! TD*
G04 #@! TA.AperFunction,ComponentPad*
%ADD22O,1.700000X1.700000*%
G04 #@! TD*
G04 #@! TA.AperFunction,ComponentPad*
%ADD23R,1.700000X1.700000*%
G04 #@! TD*
G04 #@! TA.AperFunction,SMDPad,CuDef*
%ADD24R,1.060000X0.650000*%
G04 #@! TD*
G04 #@! TA.AperFunction,SMDPad,CuDef*
%ADD25R,1.000000X2.750000*%
G04 #@! TD*
G04 #@! TA.AperFunction,ComponentPad*
%ADD26C,2.100000*%
G04 #@! TD*
G04 #@! TA.AperFunction,ComponentPad*
%ADD27R,2.100000X2.100000*%
G04 #@! TD*
G04 #@! TA.AperFunction,ViaPad*
%ADD28C,0.800000*%
G04 #@! TD*
G04 #@! TA.AperFunction,ViaPad*
%ADD29C,1.270000*%
G04 #@! TD*
G04 #@! TA.AperFunction,Conductor*
%ADD30C,0.254000*%
G04 #@! TD*
G04 #@! TA.AperFunction,Conductor*
%ADD31C,0.762000*%
G04 #@! TD*
G04 #@! TA.AperFunction,Conductor*
%ADD32C,0.250000*%
G04 #@! TD*
G04 #@! TA.AperFunction,Conductor*
%ADD33C,0.200000*%
G04 #@! TD*
G04 APERTURE END LIST*
D10*
X160528000Y-105156000D03*
D11*
X160528000Y-97256000D03*
X160528000Y-113056000D03*
D12*
X171196000Y-118780000D03*
X171196000Y-119980000D03*
D13*
X135394000Y-115324000D03*
X136894000Y-115324000D03*
X136894000Y-116324000D03*
X136144000Y-115824000D03*
X135394000Y-116324000D03*
D14*
X137144000Y-117299000D03*
X136644000Y-117299000D03*
X136144000Y-117299000D03*
D15*
X135644000Y-117584000D03*
X135144000Y-117584000D03*
D14*
X135144000Y-114349000D03*
D15*
X135644000Y-114064000D03*
D14*
X136144000Y-114349000D03*
D15*
X136644000Y-114064000D03*
X137144000Y-114064000D03*
D16*
X136144000Y-115824000D03*
D17*
X135509000Y-116274000D03*
X135509000Y-115374000D03*
X136779000Y-116274000D03*
D18*
X134514000Y-116074000D03*
X134514000Y-115574000D03*
X137774000Y-116074000D03*
D19*
X134594000Y-116074000D03*
X134594000Y-115574000D03*
X137694000Y-116074000D03*
D18*
X137774000Y-115574000D03*
D19*
X137694000Y-115574000D03*
D17*
X136779000Y-115374000D03*
D15*
X137144000Y-117584000D03*
X136644000Y-117584000D03*
X136144000Y-117584000D03*
D14*
X135644000Y-117299000D03*
X135144000Y-117299000D03*
D15*
X135144000Y-114064000D03*
D14*
X135644000Y-114349000D03*
D15*
X136144000Y-114064000D03*
D14*
X136644000Y-114349000D03*
X137144000Y-114349000D03*
G04 #@! TA.AperFunction,SMDPad,CuDef*
G36*
G01*
X165854000Y-125518000D02*
X165854000Y-124418000D01*
G75*
G02*
X166104000Y-124168000I250000J0D01*
G01*
X168204000Y-124168000D01*
G75*
G02*
X168454000Y-124418000I0J-250000D01*
G01*
X168454000Y-125518000D01*
G75*
G02*
X168204000Y-125768000I-250000J0D01*
G01*
X166104000Y-125768000D01*
G75*
G02*
X165854000Y-125518000I0J250000D01*
G01*
G37*
G04 #@! TD.AperFunction*
G04 #@! TA.AperFunction,SMDPad,CuDef*
G36*
G01*
X162254000Y-125518000D02*
X162254000Y-124418000D01*
G75*
G02*
X162504000Y-124168000I250000J0D01*
G01*
X164604000Y-124168000D01*
G75*
G02*
X164854000Y-124418000I0J-250000D01*
G01*
X164854000Y-125518000D01*
G75*
G02*
X164604000Y-125768000I-250000J0D01*
G01*
X162504000Y-125768000D01*
G75*
G02*
X162254000Y-125518000I0J250000D01*
G01*
G37*
G04 #@! TD.AperFunction*
D20*
X172000000Y-103000000D03*
X114000000Y-103000000D03*
X172000000Y-126000000D03*
X114000000Y-126000000D03*
G04 #@! TA.AperFunction,SMDPad,CuDef*
G36*
G01*
X156849000Y-92904999D02*
X156849000Y-95055001D01*
G75*
G02*
X156599001Y-95305000I-249999J0D01*
G01*
X155873999Y-95305000D01*
G75*
G02*
X155624000Y-95055001I0J249999D01*
G01*
X155624000Y-92904999D01*
G75*
G02*
X155873999Y-92655000I249999J0D01*
G01*
X156599001Y-92655000D01*
G75*
G02*
X156849000Y-92904999I0J-249999D01*
G01*
G37*
G04 #@! TD.AperFunction*
G04 #@! TA.AperFunction,SMDPad,CuDef*
G36*
G01*
X152224000Y-92904999D02*
X152224000Y-95055001D01*
G75*
G02*
X151974001Y-95305000I-249999J0D01*
G01*
X151248999Y-95305000D01*
G75*
G02*
X150999000Y-95055001I0J249999D01*
G01*
X150999000Y-92904999D01*
G75*
G02*
X151248999Y-92655000I249999J0D01*
G01*
X151974001Y-92655000D01*
G75*
G02*
X152224000Y-92904999I0J-249999D01*
G01*
G37*
G04 #@! TD.AperFunction*
D21*
X144796000Y-90424000D03*
X146796000Y-89474000D03*
X146796000Y-91374000D03*
G04 #@! TA.AperFunction,SMDPad,CuDef*
G36*
G01*
X164870000Y-119865000D02*
X164870000Y-120165000D01*
G75*
G02*
X164720000Y-120315000I-150000J0D01*
G01*
X163070000Y-120315000D01*
G75*
G02*
X162920000Y-120165000I0J150000D01*
G01*
X162920000Y-119865000D01*
G75*
G02*
X163070000Y-119715000I150000J0D01*
G01*
X164720000Y-119715000D01*
G75*
G02*
X164870000Y-119865000I0J-150000D01*
G01*
G37*
G04 #@! TD.AperFunction*
G04 #@! TA.AperFunction,SMDPad,CuDef*
G36*
G01*
X164870000Y-118595000D02*
X164870000Y-118895000D01*
G75*
G02*
X164720000Y-119045000I-150000J0D01*
G01*
X163070000Y-119045000D01*
G75*
G02*
X162920000Y-118895000I0J150000D01*
G01*
X162920000Y-118595000D01*
G75*
G02*
X163070000Y-118445000I150000J0D01*
G01*
X164720000Y-118445000D01*
G75*
G02*
X164870000Y-118595000I0J-150000D01*
G01*
G37*
G04 #@! TD.AperFunction*
G04 #@! TA.AperFunction,SMDPad,CuDef*
G36*
G01*
X164870000Y-117325000D02*
X164870000Y-117625000D01*
G75*
G02*
X164720000Y-117775000I-150000J0D01*
G01*
X163070000Y-117775000D01*
G75*
G02*
X162920000Y-117625000I0J150000D01*
G01*
X162920000Y-117325000D01*
G75*
G02*
X163070000Y-117175000I150000J0D01*
G01*
X164720000Y-117175000D01*
G75*
G02*
X164870000Y-117325000I0J-150000D01*
G01*
G37*
G04 #@! TD.AperFunction*
G04 #@! TA.AperFunction,SMDPad,CuDef*
G36*
G01*
X164870000Y-116055000D02*
X164870000Y-116355000D01*
G75*
G02*
X164720000Y-116505000I-150000J0D01*
G01*
X163070000Y-116505000D01*
G75*
G02*
X162920000Y-116355000I0J150000D01*
G01*
X162920000Y-116055000D01*
G75*
G02*
X163070000Y-115905000I150000J0D01*
G01*
X164720000Y-115905000D01*
G75*
G02*
X164870000Y-116055000I0J-150000D01*
G01*
G37*
G04 #@! TD.AperFunction*
G04 #@! TA.AperFunction,SMDPad,CuDef*
G36*
G01*
X169820000Y-116055000D02*
X169820000Y-116355000D01*
G75*
G02*
X169670000Y-116505000I-150000J0D01*
G01*
X168020000Y-116505000D01*
G75*
G02*
X167870000Y-116355000I0J150000D01*
G01*
X167870000Y-116055000D01*
G75*
G02*
X168020000Y-115905000I150000J0D01*
G01*
X169670000Y-115905000D01*
G75*
G02*
X169820000Y-116055000I0J-150000D01*
G01*
G37*
G04 #@! TD.AperFunction*
G04 #@! TA.AperFunction,SMDPad,CuDef*
G36*
G01*
X169820000Y-117325000D02*
X169820000Y-117625000D01*
G75*
G02*
X169670000Y-117775000I-150000J0D01*
G01*
X168020000Y-117775000D01*
G75*
G02*
X167870000Y-117625000I0J150000D01*
G01*
X167870000Y-117325000D01*
G75*
G02*
X168020000Y-117175000I150000J0D01*
G01*
X169670000Y-117175000D01*
G75*
G02*
X169820000Y-117325000I0J-150000D01*
G01*
G37*
G04 #@! TD.AperFunction*
G04 #@! TA.AperFunction,SMDPad,CuDef*
G36*
G01*
X169820000Y-118595000D02*
X169820000Y-118895000D01*
G75*
G02*
X169670000Y-119045000I-150000J0D01*
G01*
X168020000Y-119045000D01*
G75*
G02*
X167870000Y-118895000I0J150000D01*
G01*
X167870000Y-118595000D01*
G75*
G02*
X168020000Y-118445000I150000J0D01*
G01*
X169670000Y-118445000D01*
G75*
G02*
X169820000Y-118595000I0J-150000D01*
G01*
G37*
G04 #@! TD.AperFunction*
G04 #@! TA.AperFunction,SMDPad,CuDef*
G36*
G01*
X169820000Y-119865000D02*
X169820000Y-120165000D01*
G75*
G02*
X169670000Y-120315000I-150000J0D01*
G01*
X168020000Y-120315000D01*
G75*
G02*
X167870000Y-120165000I0J150000D01*
G01*
X167870000Y-119865000D01*
G75*
G02*
X168020000Y-119715000I150000J0D01*
G01*
X169670000Y-119715000D01*
G75*
G02*
X169820000Y-119865000I0J-150000D01*
G01*
G37*
G04 #@! TD.AperFunction*
G04 #@! TA.AperFunction,SMDPad,CuDef*
G36*
G01*
X129905999Y-117232000D02*
X131206001Y-117232000D01*
G75*
G02*
X131456000Y-117481999I0J-249999D01*
G01*
X131456000Y-118132001D01*
G75*
G02*
X131206001Y-118382000I-249999J0D01*
G01*
X129905999Y-118382000D01*
G75*
G02*
X129656000Y-118132001I0J249999D01*
G01*
X129656000Y-117481999D01*
G75*
G02*
X129905999Y-117232000I249999J0D01*
G01*
G37*
G04 #@! TD.AperFunction*
G04 #@! TA.AperFunction,SMDPad,CuDef*
G36*
G01*
X129905999Y-114282000D02*
X131206001Y-114282000D01*
G75*
G02*
X131456000Y-114531999I0J-249999D01*
G01*
X131456000Y-115182001D01*
G75*
G02*
X131206001Y-115432000I-249999J0D01*
G01*
X129905999Y-115432000D01*
G75*
G02*
X129656000Y-115182001I0J249999D01*
G01*
X129656000Y-114531999D01*
G75*
G02*
X129905999Y-114282000I249999J0D01*
G01*
G37*
G04 #@! TD.AperFunction*
D22*
X141730000Y-101710000D03*
X141730000Y-104250000D03*
X139190000Y-101710000D03*
X139190000Y-104250000D03*
X136650000Y-101710000D03*
X136650000Y-104250000D03*
X134110000Y-101710000D03*
X134110000Y-104250000D03*
X131570000Y-101710000D03*
X131570000Y-104250000D03*
X129030000Y-101710000D03*
X129030000Y-104250000D03*
X126490000Y-101710000D03*
X126490000Y-104250000D03*
X123950000Y-101710000D03*
X123950000Y-104250000D03*
X121410000Y-101710000D03*
X121410000Y-104250000D03*
X118870000Y-101710000D03*
D23*
X118870000Y-104250000D03*
D24*
X123020000Y-116078000D03*
X123020000Y-115128000D03*
X123020000Y-117028000D03*
X120820000Y-117028000D03*
X120820000Y-116078000D03*
X120820000Y-115128000D03*
G04 #@! TA.AperFunction,SMDPad,CuDef*
G36*
G01*
X157402000Y-126297001D02*
X157402000Y-124146999D01*
G75*
G02*
X157651999Y-123897000I249999J0D01*
G01*
X158377001Y-123897000D01*
G75*
G02*
X158627000Y-124146999I0J-249999D01*
G01*
X158627000Y-126297001D01*
G75*
G02*
X158377001Y-126547000I-249999J0D01*
G01*
X157651999Y-126547000D01*
G75*
G02*
X157402000Y-126297001I0J249999D01*
G01*
G37*
G04 #@! TD.AperFunction*
G04 #@! TA.AperFunction,SMDPad,CuDef*
G36*
G01*
X152777000Y-126297001D02*
X152777000Y-124146999D01*
G75*
G02*
X153026999Y-123897000I249999J0D01*
G01*
X153752001Y-123897000D01*
G75*
G02*
X154002000Y-124146999I0J-249999D01*
G01*
X154002000Y-126297001D01*
G75*
G02*
X153752001Y-126547000I-249999J0D01*
G01*
X153026999Y-126547000D01*
G75*
G02*
X152777000Y-126297001I0J249999D01*
G01*
G37*
G04 #@! TD.AperFunction*
G04 #@! TA.AperFunction,SMDPad,CuDef*
G36*
G01*
X150798000Y-126297001D02*
X150798000Y-124146999D01*
G75*
G02*
X151047999Y-123897000I249999J0D01*
G01*
X151773001Y-123897000D01*
G75*
G02*
X152023000Y-124146999I0J-249999D01*
G01*
X152023000Y-126297001D01*
G75*
G02*
X151773001Y-126547000I-249999J0D01*
G01*
X151047999Y-126547000D01*
G75*
G02*
X150798000Y-126297001I0J249999D01*
G01*
G37*
G04 #@! TD.AperFunction*
G04 #@! TA.AperFunction,SMDPad,CuDef*
G36*
G01*
X146173000Y-126297001D02*
X146173000Y-124146999D01*
G75*
G02*
X146422999Y-123897000I249999J0D01*
G01*
X147148001Y-123897000D01*
G75*
G02*
X147398000Y-124146999I0J-249999D01*
G01*
X147398000Y-126297001D01*
G75*
G02*
X147148001Y-126547000I-249999J0D01*
G01*
X146422999Y-126547000D01*
G75*
G02*
X146173000Y-126297001I0J249999D01*
G01*
G37*
G04 #@! TD.AperFunction*
G04 #@! TA.AperFunction,SMDPad,CuDef*
G36*
G01*
X127313001Y-112854000D02*
X125162999Y-112854000D01*
G75*
G02*
X124913000Y-112604001I0J249999D01*
G01*
X124913000Y-111878999D01*
G75*
G02*
X125162999Y-111629000I249999J0D01*
G01*
X127313001Y-111629000D01*
G75*
G02*
X127563000Y-111878999I0J-249999D01*
G01*
X127563000Y-112604001D01*
G75*
G02*
X127313001Y-112854000I-249999J0D01*
G01*
G37*
G04 #@! TD.AperFunction*
G04 #@! TA.AperFunction,SMDPad,CuDef*
G36*
G01*
X127313001Y-117479000D02*
X125162999Y-117479000D01*
G75*
G02*
X124913000Y-117229001I0J249999D01*
G01*
X124913000Y-116503999D01*
G75*
G02*
X125162999Y-116254000I249999J0D01*
G01*
X127313001Y-116254000D01*
G75*
G02*
X127563000Y-116503999I0J-249999D01*
G01*
X127563000Y-117229001D01*
G75*
G02*
X127313001Y-117479000I-249999J0D01*
G01*
G37*
G04 #@! TD.AperFunction*
G04 #@! TA.AperFunction,SMDPad,CuDef*
G36*
G01*
X132510000Y-122487001D02*
X132510000Y-120336999D01*
G75*
G02*
X132759999Y-120087000I249999J0D01*
G01*
X133485001Y-120087000D01*
G75*
G02*
X133735000Y-120336999I0J-249999D01*
G01*
X133735000Y-122487001D01*
G75*
G02*
X133485001Y-122737000I-249999J0D01*
G01*
X132759999Y-122737000D01*
G75*
G02*
X132510000Y-122487001I0J249999D01*
G01*
G37*
G04 #@! TD.AperFunction*
G04 #@! TA.AperFunction,SMDPad,CuDef*
G36*
G01*
X127885000Y-122487001D02*
X127885000Y-120336999D01*
G75*
G02*
X128134999Y-120087000I249999J0D01*
G01*
X128860001Y-120087000D01*
G75*
G02*
X129110000Y-120336999I0J-249999D01*
G01*
X129110000Y-122487001D01*
G75*
G02*
X128860001Y-122737000I-249999J0D01*
G01*
X128134999Y-122737000D01*
G75*
G02*
X127885000Y-122487001I0J249999D01*
G01*
G37*
G04 #@! TD.AperFunction*
G04 #@! TA.AperFunction,SMDPad,CuDef*
G36*
G01*
X146355500Y-102048999D02*
X146355500Y-104199001D01*
G75*
G02*
X146105501Y-104449000I-249999J0D01*
G01*
X145380499Y-104449000D01*
G75*
G02*
X145130500Y-104199001I0J249999D01*
G01*
X145130500Y-102048999D01*
G75*
G02*
X145380499Y-101799000I249999J0D01*
G01*
X146105501Y-101799000D01*
G75*
G02*
X146355500Y-102048999I0J-249999D01*
G01*
G37*
G04 #@! TD.AperFunction*
G04 #@! TA.AperFunction,SMDPad,CuDef*
G36*
G01*
X150980500Y-102048999D02*
X150980500Y-104199001D01*
G75*
G02*
X150730501Y-104449000I-249999J0D01*
G01*
X150005499Y-104449000D01*
G75*
G02*
X149755500Y-104199001I0J249999D01*
G01*
X149755500Y-102048999D01*
G75*
G02*
X150005499Y-101799000I249999J0D01*
G01*
X150730501Y-101799000D01*
G75*
G02*
X150980500Y-102048999I0J-249999D01*
G01*
G37*
G04 #@! TD.AperFunction*
G04 #@! TA.AperFunction,SMDPad,CuDef*
G36*
G01*
X117407001Y-115902000D02*
X115256999Y-115902000D01*
G75*
G02*
X115007000Y-115652001I0J249999D01*
G01*
X115007000Y-114926999D01*
G75*
G02*
X115256999Y-114677000I249999J0D01*
G01*
X117407001Y-114677000D01*
G75*
G02*
X117657000Y-114926999I0J-249999D01*
G01*
X117657000Y-115652001D01*
G75*
G02*
X117407001Y-115902000I-249999J0D01*
G01*
G37*
G04 #@! TD.AperFunction*
G04 #@! TA.AperFunction,SMDPad,CuDef*
G36*
G01*
X117407001Y-120527000D02*
X115256999Y-120527000D01*
G75*
G02*
X115007000Y-120277001I0J249999D01*
G01*
X115007000Y-119551999D01*
G75*
G02*
X115256999Y-119302000I249999J0D01*
G01*
X117407001Y-119302000D01*
G75*
G02*
X117657000Y-119551999I0J-249999D01*
G01*
X117657000Y-120277001D01*
G75*
G02*
X117407001Y-120527000I-249999J0D01*
G01*
G37*
G04 #@! TD.AperFunction*
D25*
X134994000Y-111760000D03*
X137294000Y-111760000D03*
D26*
X139700000Y-90170000D03*
X137160000Y-90170000D03*
X134620000Y-90170000D03*
X132080000Y-90170000D03*
X129540000Y-90170000D03*
X127000000Y-90170000D03*
X124460000Y-90170000D03*
X121920000Y-90170000D03*
X119380000Y-90170000D03*
X116840000Y-90170000D03*
D27*
X114300000Y-90170000D03*
G04 #@! TA.AperFunction,SMDPad,CuDef*
G36*
G01*
X142859999Y-116470000D02*
X144160001Y-116470000D01*
G75*
G02*
X144410000Y-116719999I0J-249999D01*
G01*
X144410000Y-117370001D01*
G75*
G02*
X144160001Y-117620000I-249999J0D01*
G01*
X142859999Y-117620000D01*
G75*
G02*
X142610000Y-117370001I0J249999D01*
G01*
X142610000Y-116719999D01*
G75*
G02*
X142859999Y-116470000I249999J0D01*
G01*
G37*
G04 #@! TD.AperFunction*
G04 #@! TA.AperFunction,SMDPad,CuDef*
G36*
G01*
X142859999Y-113520000D02*
X144160001Y-113520000D01*
G75*
G02*
X144410000Y-113769999I0J-249999D01*
G01*
X144410000Y-114420001D01*
G75*
G02*
X144160001Y-114670000I-249999J0D01*
G01*
X142859999Y-114670000D01*
G75*
G02*
X142610000Y-114420001I0J249999D01*
G01*
X142610000Y-113769999D01*
G75*
G02*
X142859999Y-113520000I249999J0D01*
G01*
G37*
G04 #@! TD.AperFunction*
G04 #@! TA.AperFunction,SMDPad,CuDef*
G36*
G01*
X139849999Y-116375000D02*
X141150001Y-116375000D01*
G75*
G02*
X141400000Y-116624999I0J-249999D01*
G01*
X141400000Y-117275001D01*
G75*
G02*
X141150001Y-117525000I-249999J0D01*
G01*
X139849999Y-117525000D01*
G75*
G02*
X139600000Y-117275001I0J249999D01*
G01*
X139600000Y-116624999D01*
G75*
G02*
X139849999Y-116375000I249999J0D01*
G01*
G37*
G04 #@! TD.AperFunction*
G04 #@! TA.AperFunction,SMDPad,CuDef*
G36*
G01*
X139849999Y-113425000D02*
X141150001Y-113425000D01*
G75*
G02*
X141400000Y-113674999I0J-249999D01*
G01*
X141400000Y-114325001D01*
G75*
G02*
X141150001Y-114575000I-249999J0D01*
G01*
X139849999Y-114575000D01*
G75*
G02*
X139600000Y-114325001I0J249999D01*
G01*
X139600000Y-113674999D01*
G75*
G02*
X139849999Y-113425000I249999J0D01*
G01*
G37*
G04 #@! TD.AperFunction*
G04 #@! TA.AperFunction,SMDPad,CuDef*
G36*
G01*
X135575000Y-120849999D02*
X135575000Y-122150001D01*
G75*
G02*
X135325001Y-122400000I-249999J0D01*
G01*
X134674999Y-122400000D01*
G75*
G02*
X134425000Y-122150001I0J249999D01*
G01*
X134425000Y-120849999D01*
G75*
G02*
X134674999Y-120600000I249999J0D01*
G01*
X135325001Y-120600000D01*
G75*
G02*
X135575000Y-120849999I0J-249999D01*
G01*
G37*
G04 #@! TD.AperFunction*
G04 #@! TA.AperFunction,SMDPad,CuDef*
G36*
G01*
X138525000Y-120849999D02*
X138525000Y-122150001D01*
G75*
G02*
X138275001Y-122400000I-249999J0D01*
G01*
X137624999Y-122400000D01*
G75*
G02*
X137375000Y-122150001I0J249999D01*
G01*
X137375000Y-120849999D01*
G75*
G02*
X137624999Y-120600000I249999J0D01*
G01*
X138275001Y-120600000D01*
G75*
G02*
X138525000Y-120849999I0J-249999D01*
G01*
G37*
G04 #@! TD.AperFunction*
D28*
X125222000Y-118618000D03*
X150876000Y-98552000D03*
X159004000Y-121666000D03*
X144272000Y-125476000D03*
D29*
X170180000Y-122428000D03*
X113284000Y-110998000D03*
X119126000Y-96520000D03*
X143510000Y-119634000D03*
X150114000Y-116586000D03*
X129540000Y-98044000D03*
D28*
X138684000Y-116840000D03*
X138684000Y-114808000D03*
D30*
X170053000Y-117475000D02*
X170688000Y-116840000D01*
X168845000Y-117475000D02*
X170053000Y-117475000D01*
X170688000Y-115316000D02*
X160528000Y-105156000D01*
X170688000Y-116840000D02*
X170688000Y-115316000D01*
X134912000Y-121412000D02*
X135000000Y-121500000D01*
X133122500Y-121412000D02*
X134912000Y-121412000D01*
X135000000Y-117368000D02*
X135144000Y-117224000D01*
X135000000Y-121500000D02*
X135000000Y-117368000D01*
X135644000Y-117224000D02*
X136144000Y-117224000D01*
X135644000Y-117224000D02*
X135144000Y-117224000D01*
D31*
X143415000Y-114000000D02*
X143510000Y-114095000D01*
X140500000Y-114000000D02*
X143415000Y-114000000D01*
X143510000Y-114095000D02*
X145617500Y-114095000D01*
X145617500Y-100478228D02*
X144933264Y-99793992D01*
X145617500Y-114095000D02*
X145617500Y-100478228D01*
X118870000Y-99824000D02*
X118900008Y-99793992D01*
X118870000Y-101710000D02*
X118870000Y-99824000D01*
X144300008Y-99793992D02*
X139190492Y-99793992D01*
X144933264Y-99793992D02*
X144300008Y-99793992D01*
X137160000Y-90170000D02*
X137160000Y-87376000D01*
X137160000Y-87376000D02*
X136906000Y-87122000D01*
X136906000Y-87122000D02*
X130048000Y-87122000D01*
X129540000Y-87630000D02*
X129540000Y-90170000D01*
X130048000Y-87122000D02*
X129540000Y-87630000D01*
X123326008Y-99793992D02*
X121410000Y-101710000D01*
X118900008Y-99793992D02*
X123326008Y-99793992D01*
D30*
X145617500Y-114095000D02*
X145617500Y-122563462D01*
X163602500Y-120307500D02*
X163895000Y-120015000D01*
X163602500Y-124460000D02*
X163602500Y-120307500D01*
D31*
X144300008Y-99793992D02*
X138966008Y-99793992D01*
X138966008Y-99793992D02*
X123326008Y-99793992D01*
D30*
X149124500Y-127508000D02*
X151410500Y-125222000D01*
X145228038Y-127508000D02*
X149124500Y-127508000D01*
X143510000Y-125789962D02*
X145228038Y-127508000D01*
X143510000Y-123698000D02*
X143510000Y-125789962D01*
D32*
X144644538Y-122563462D02*
X143510000Y-123698000D01*
X145617500Y-122563462D02*
X144644538Y-122563462D01*
X156744500Y-126492000D02*
X158014500Y-125222000D01*
X156744500Y-127508000D02*
X156744500Y-126492000D01*
X162840500Y-125222000D02*
X163602500Y-124460000D01*
X158014500Y-125222000D02*
X162840500Y-125222000D01*
D31*
X138966008Y-99793992D02*
X138966008Y-97564008D01*
X137160000Y-95758000D02*
X137160000Y-90170000D01*
X138966008Y-97564008D02*
X137160000Y-95758000D01*
D30*
X151638000Y-127508000D02*
X156744500Y-127508000D01*
X151638000Y-125449500D02*
X151410500Y-125222000D01*
X151638000Y-127508000D02*
X151638000Y-125449500D01*
D31*
X140749999Y-89120001D02*
X139700000Y-90170000D01*
X146442001Y-89120001D02*
X140749999Y-89120001D01*
X146796000Y-89474000D02*
X146442001Y-89120001D01*
D30*
X129271086Y-86413990D02*
X127000000Y-88685076D01*
X146299008Y-86413990D02*
X129271086Y-86413990D01*
X127000000Y-88685076D02*
X127000000Y-90170000D01*
X153924000Y-94038982D02*
X146299008Y-86413990D01*
X153924000Y-95504000D02*
X153924000Y-94038982D01*
X152551010Y-96876990D02*
X153924000Y-95504000D01*
X152551010Y-100940990D02*
X152551010Y-96876990D01*
X150368000Y-103124000D02*
X152551010Y-100940990D01*
X117933500Y-119914500D02*
X120820000Y-117028000D01*
X116332000Y-119914500D02*
X117933500Y-119914500D01*
X122410000Y-118618000D02*
X120820000Y-117028000D01*
X125222000Y-118618000D02*
X122410000Y-118618000D01*
D32*
X146796000Y-91374000D02*
X149005500Y-91374000D01*
X151384000Y-94207500D02*
X151611500Y-93980000D01*
D30*
X150876000Y-94715500D02*
X151611500Y-93980000D01*
X150876000Y-98552000D02*
X150876000Y-94715500D01*
X151611500Y-93980000D02*
X149005500Y-91374000D01*
X131570000Y-106909500D02*
X126238000Y-112241500D01*
X131570000Y-104250000D02*
X131570000Y-106909500D01*
X163195000Y-117475000D02*
X163895000Y-117475000D01*
X159004000Y-121666000D02*
X163195000Y-117475000D01*
D32*
X159004000Y-121666000D02*
X157480000Y-123190000D01*
X155421500Y-123190000D02*
X153389500Y-125222000D01*
X157480000Y-123190000D02*
X155421500Y-123190000D01*
D30*
X146531500Y-125476000D02*
X146785500Y-125222000D01*
X144272000Y-125476000D02*
X146785500Y-125222000D01*
X162920000Y-116205000D02*
X156951000Y-122174000D01*
X163895000Y-116205000D02*
X162920000Y-116205000D01*
X156951000Y-122174000D02*
X153643500Y-122174000D01*
D32*
X149833500Y-122174000D02*
X146785500Y-125222000D01*
X153643500Y-122174000D02*
X149833500Y-122174000D01*
D30*
X135644000Y-112410000D02*
X135644000Y-114424000D01*
X134994000Y-111760000D02*
X135644000Y-112410000D01*
X136644000Y-112410000D02*
X137294000Y-111760000D01*
X136644000Y-114424000D02*
X136644000Y-112410000D01*
X123181500Y-116866500D02*
X123020000Y-117028000D01*
X126238000Y-116866500D02*
X123181500Y-116866500D01*
D33*
X168880000Y-118780000D02*
X168845000Y-118745000D01*
X170815000Y-118780000D02*
X168880000Y-118780000D01*
D32*
X171161000Y-120015000D02*
X171196000Y-119980000D01*
X168845000Y-120015000D02*
X171161000Y-120015000D01*
D30*
X128497500Y-116872482D02*
X128497500Y-121412000D01*
X123955010Y-115926990D02*
X127552008Y-115926990D01*
X127552008Y-115926990D02*
X128497500Y-116872482D01*
X123804000Y-116078000D02*
X123955010Y-115926990D01*
X123020000Y-116078000D02*
X123804000Y-116078000D01*
D32*
X138000000Y-121450000D02*
X137950000Y-121500000D01*
D31*
X116332000Y-115289500D02*
X114527500Y-115289500D01*
X114527500Y-115289500D02*
X113284000Y-114046000D01*
X113284000Y-114046000D02*
X113284000Y-110998000D01*
X130805001Y-118105001D02*
X130556000Y-117856000D01*
X137922000Y-119888000D02*
X140765000Y-117045000D01*
X137922000Y-122428000D02*
X137922000Y-119888000D01*
X137031990Y-123318010D02*
X137922000Y-122428000D01*
X140765000Y-117045000D02*
X143510000Y-117045000D01*
X132415782Y-123318010D02*
X137031990Y-123318010D01*
X130556000Y-121458228D02*
X132415782Y-123318010D01*
X130556000Y-117856000D02*
X130556000Y-121458228D01*
X132539000Y-115824000D02*
X136144000Y-115824000D01*
X130556000Y-117807000D02*
X132539000Y-115824000D01*
X139374000Y-115824000D02*
X136144000Y-115824000D01*
X140500000Y-116950000D02*
X139374000Y-115824000D01*
D30*
X136144000Y-115824000D02*
X136144000Y-114424000D01*
D31*
X135569000Y-115824000D02*
X136144000Y-115249000D01*
X135194000Y-115824000D02*
X135569000Y-115824000D01*
X136719000Y-115824000D02*
X136144000Y-115249000D01*
X137094000Y-115824000D02*
X136719000Y-115824000D01*
X122828999Y-88538999D02*
X124460000Y-90170000D01*
X118471001Y-88538999D02*
X122828999Y-88538999D01*
X116840000Y-90170000D02*
X118471001Y-88538999D01*
X124460000Y-93218000D02*
X124460000Y-90170000D01*
X129540000Y-98298000D02*
X124460000Y-93218000D01*
X116840000Y-90170000D02*
X119126000Y-92456000D01*
X119126000Y-92456000D02*
X119126000Y-96520000D01*
X143510000Y-117045000D02*
X143510000Y-119634000D01*
X150114000Y-116586000D02*
X147320000Y-113792000D01*
D30*
X168021000Y-116205000D02*
X168845000Y-116205000D01*
X166878000Y-117348000D02*
X168021000Y-116205000D01*
X168845000Y-116205000D02*
X167259000Y-116205000D01*
X167259000Y-116205000D02*
X166116000Y-115062000D01*
X166116000Y-115062000D02*
X162814000Y-115062000D01*
X162814000Y-115062000D02*
X157480000Y-120396000D01*
X153924000Y-120396000D02*
X150114000Y-116586000D01*
X157480000Y-120396000D02*
X153924000Y-120396000D01*
D31*
X116332000Y-115289500D02*
X117120500Y-116078000D01*
X117132510Y-116090010D02*
X120820000Y-116090010D01*
X116332000Y-115289500D02*
X117132510Y-116090010D01*
X113284000Y-119479228D02*
X113284000Y-110998000D01*
X114912782Y-121108010D02*
X113284000Y-119479228D01*
X119611262Y-121108010D02*
X114912782Y-121108010D01*
X121821262Y-123318010D02*
X119611262Y-121108010D01*
X132415782Y-123318010D02*
X121821262Y-123318010D01*
D30*
X125127001Y-102887001D02*
X123950000Y-101710000D01*
X127667001Y-102887001D02*
X125127001Y-102887001D01*
X129030000Y-104250000D02*
X127667001Y-102887001D01*
X139598999Y-117851001D02*
X140500000Y-116950000D01*
D32*
X166878000Y-124692000D02*
X167154000Y-124968000D01*
X136644000Y-118610000D02*
X137922000Y-119888000D01*
X136644000Y-117299000D02*
X136644000Y-118610000D01*
X166878000Y-117348000D02*
X166878000Y-124692000D01*
D33*
X167154000Y-124968000D02*
X170180000Y-121942000D01*
X170158000Y-121942000D02*
X169545000Y-122555000D01*
X170180000Y-121942000D02*
X170158000Y-121942000D01*
X172650001Y-120396000D02*
X172650001Y-117939998D01*
X172650001Y-118004999D02*
X172590001Y-117944999D01*
X170503999Y-120580001D02*
X171655001Y-120580001D01*
X170503999Y-122104001D02*
X170180000Y-122428000D01*
X170503999Y-121088001D02*
X170503999Y-122104001D01*
X170503999Y-120580001D02*
X170503999Y-121088001D01*
X170503999Y-121088001D02*
X170503999Y-121227999D01*
D32*
X162534000Y-115062000D02*
X160528000Y-113056000D01*
X162814000Y-115062000D02*
X162534000Y-115062000D01*
X147320000Y-109728000D02*
X151384000Y-109728000D01*
D31*
X147320000Y-113792000D02*
X147320000Y-109728000D01*
D32*
X151384000Y-109728000D02*
X153416000Y-107696000D01*
X153416000Y-104368000D02*
X160528000Y-97256000D01*
X153416000Y-107696000D02*
X153416000Y-104368000D01*
D31*
X147320000Y-100330000D02*
X147320000Y-109728000D01*
X148336000Y-99314000D02*
X147320000Y-100330000D01*
X148211490Y-99189490D02*
X148211490Y-94617490D01*
X144796000Y-91269802D02*
X144796000Y-90424000D01*
X148143688Y-94617490D02*
X144796000Y-91269802D01*
X148211490Y-94617490D02*
X148143688Y-94617490D01*
D30*
X159512500Y-97256000D02*
X156236500Y-93980000D01*
X160528000Y-97256000D02*
X159512500Y-97256000D01*
D33*
X172650001Y-120396000D02*
X172466000Y-120580001D01*
X172590001Y-117944999D02*
X170309999Y-117944999D01*
X170309999Y-117944999D02*
X170110008Y-118144990D01*
X170110008Y-118144990D02*
X167833598Y-118144990D01*
X167833598Y-118144990D02*
X167569990Y-118408598D01*
X167569990Y-118408598D02*
X167569990Y-120351402D01*
X167569990Y-120351402D02*
X167833598Y-120615010D01*
X167833598Y-120615010D02*
X169856402Y-120615010D01*
X169974999Y-120580001D02*
X170503999Y-120580001D01*
X172466000Y-120580001D02*
X171655001Y-120580001D01*
D31*
X119126000Y-96520000D02*
X119126000Y-96520000D01*
X113284000Y-110998000D02*
X113284000Y-110998000D01*
X114300000Y-90170000D02*
X117281001Y-93151001D01*
X120191614Y-114250386D02*
X122886386Y-114250386D01*
X120191614Y-114250386D02*
X120820000Y-114878772D01*
X123020000Y-114384000D02*
X123020000Y-115128000D01*
X122886386Y-114250386D02*
X123020000Y-114384000D01*
X123020000Y-114384000D02*
X130083000Y-114384000D01*
X117281001Y-111339773D02*
X120191614Y-114250386D01*
X117281001Y-93151001D02*
X117281001Y-111339773D01*
D30*
X118938999Y-98993001D02*
X117281001Y-98993001D01*
X120396000Y-97536000D02*
X118938999Y-98993001D01*
X120396000Y-91186000D02*
X120396000Y-97536000D01*
X119380000Y-90170000D02*
X120396000Y-91186000D01*
D31*
X130083000Y-114384000D02*
X130556000Y-114857000D01*
X134922990Y-114127990D02*
X134922990Y-114349000D01*
X134587000Y-113792000D02*
X134922990Y-114127990D01*
X131621000Y-113792000D02*
X134587000Y-113792000D01*
X130556000Y-114857000D02*
X131621000Y-113792000D01*
D30*
X137144000Y-117224000D02*
X138300000Y-117224000D01*
X138300000Y-117224000D02*
X138684000Y-116840000D01*
X138684000Y-114808000D02*
X137876000Y-114000000D01*
D31*
X140500000Y-114000000D02*
X137714000Y-114000000D01*
X137714000Y-114000000D02*
X137414000Y-114300000D01*
M02*
