G04 #@! TF.GenerationSoftware,KiCad,Pcbnew,6.0.0*
G04 #@! TF.CreationDate,2022-01-07T13:13:09+02:00*
G04 #@! TF.ProjectId,sticky_pi_hat,73746963-6b79-45f7-9069-5f6861742e6b,rev?*
G04 #@! TF.SameCoordinates,Original*
G04 #@! TF.FileFunction,Copper,L2,Bot*
G04 #@! TF.FilePolarity,Positive*
%FSLAX46Y46*%
G04 Gerber Fmt 4.6, Leading zero omitted, Abs format (unit mm)*
G04 Created by KiCad (PCBNEW 6.0.0) date 2022-01-07 13:13:09*
%MOMM*%
%LPD*%
G01*
G04 APERTURE LIST*
G04 #@! TA.AperFunction,ComponentPad*
%ADD10R,2.100000X2.100000*%
G04 #@! TD*
G04 #@! TA.AperFunction,ComponentPad*
%ADD11C,2.100000*%
G04 #@! TD*
G04 #@! TA.AperFunction,ComponentPad*
%ADD12C,0.600000*%
G04 #@! TD*
G04 #@! TA.AperFunction,SMDPad,CuDef*
%ADD13R,2.800000X2.300000*%
G04 #@! TD*
G04 #@! TA.AperFunction,ComponentPad*
%ADD14R,1.700000X1.700000*%
G04 #@! TD*
G04 #@! TA.AperFunction,ComponentPad*
%ADD15O,1.700000X1.700000*%
G04 #@! TD*
G04 #@! TA.AperFunction,ComponentPad*
%ADD16C,5.600000*%
G04 #@! TD*
G04 #@! TA.AperFunction,ViaPad*
%ADD17C,0.800000*%
G04 #@! TD*
G04 #@! TA.AperFunction,ViaPad*
%ADD18C,1.270000*%
G04 #@! TD*
G04 #@! TA.AperFunction,Conductor*
%ADD19C,0.250000*%
G04 #@! TD*
G04 #@! TA.AperFunction,Conductor*
%ADD20C,0.762000*%
G04 #@! TD*
G04 #@! TA.AperFunction,Conductor*
%ADD21C,0.200000*%
G04 #@! TD*
G04 #@! TA.AperFunction,Conductor*
%ADD22C,0.254000*%
G04 #@! TD*
G04 APERTURE END LIST*
D10*
X114300000Y-90170000D03*
D11*
X116840000Y-90170000D03*
X119380000Y-90170000D03*
X121920000Y-90170000D03*
X124460000Y-90170000D03*
X127000000Y-90170000D03*
X129540000Y-90170000D03*
X132080000Y-90170000D03*
X134620000Y-90170000D03*
X137160000Y-90170000D03*
X139700000Y-90170000D03*
D12*
X136894000Y-116324000D03*
X135394000Y-115324000D03*
X136144000Y-115824000D03*
D13*
X136144000Y-115824000D03*
D12*
X135394000Y-116324000D03*
X136894000Y-115324000D03*
D14*
X126441200Y-108661200D03*
D15*
X123901200Y-108661200D03*
D16*
X114005200Y-102997000D03*
X172005200Y-125997000D03*
X172005200Y-102997000D03*
X114005200Y-125997000D03*
D14*
X118870000Y-104250000D03*
D15*
X118870000Y-101710000D03*
X121410000Y-104250000D03*
X121410000Y-101710000D03*
X123950000Y-104250000D03*
X123950000Y-101710000D03*
X126490000Y-104250000D03*
X126490000Y-101710000D03*
X129030000Y-104250000D03*
X129030000Y-101710000D03*
X131570000Y-104250000D03*
X131570000Y-101710000D03*
X134110000Y-104250000D03*
X134110000Y-101710000D03*
X136650000Y-104250000D03*
X136650000Y-101710000D03*
X139190000Y-104250000D03*
X139190000Y-101710000D03*
X141730000Y-104250000D03*
X141730000Y-101710000D03*
X144270000Y-104250000D03*
X144270000Y-101710000D03*
X146810000Y-104250000D03*
X146810000Y-101710000D03*
X149350000Y-104250000D03*
X149350000Y-101710000D03*
D17*
X144605902Y-110382382D03*
D18*
X143510000Y-119634000D03*
X113170200Y-107697000D03*
X155194000Y-116586000D03*
X119126000Y-96520000D03*
X170180000Y-122428000D03*
X129540000Y-98044000D03*
D17*
X138684000Y-114808000D03*
X138684000Y-116840000D03*
X140512800Y-106375200D03*
X127914400Y-106121200D03*
X126593600Y-122326400D03*
X128473200Y-124307600D03*
X145295200Y-123997000D03*
X145195200Y-115197000D03*
X144070200Y-111772000D03*
X159004000Y-121666000D03*
X152704899Y-97215541D03*
X145707000Y-125476000D03*
X123550260Y-118156140D03*
X139032860Y-109159340D03*
X131195200Y-115522000D03*
X118978100Y-118869900D03*
X120505200Y-124997000D03*
D19*
X150809520Y-116586000D02*
X144605902Y-110382382D01*
D20*
X128631001Y-88538999D02*
X127000000Y-90170000D01*
X134027199Y-88538999D02*
X128631001Y-88538999D01*
X152146000Y-119634000D02*
X155194000Y-116586000D01*
D21*
X170180000Y-122428000D02*
X172212000Y-120396000D01*
D20*
X114120200Y-106747000D02*
X115895200Y-106747000D01*
X115895200Y-106747000D02*
X117438999Y-105203201D01*
D21*
X172212000Y-120396000D02*
X172212000Y-119888000D01*
D20*
X121920000Y-96520000D02*
X123950000Y-98550000D01*
X117438999Y-98207001D02*
X119126000Y-96520000D01*
X116840000Y-90170000D02*
X116840000Y-89182200D01*
D19*
X155194000Y-116586000D02*
X149934520Y-116586000D01*
D20*
X119126000Y-96520000D02*
X121920000Y-96520000D01*
X117875200Y-88147000D02*
X124977000Y-88147000D01*
X134110000Y-101710000D02*
X130444000Y-98044000D01*
X116840000Y-89182200D02*
X117875200Y-88147000D01*
X113170200Y-107697000D02*
X114120200Y-106747000D01*
X124977000Y-88147000D02*
X127000000Y-90170000D01*
X117438999Y-105203201D02*
X117438999Y-98207001D01*
X130444000Y-98044000D02*
X129540000Y-98044000D01*
X134620000Y-90170000D02*
X134620000Y-89131800D01*
X123950000Y-98550000D02*
X123950000Y-101710000D01*
X134620000Y-89131800D02*
X134027199Y-88538999D01*
X143510000Y-119634000D02*
X152146000Y-119634000D01*
D22*
X138684000Y-116840000D02*
X138684000Y-114808000D01*
D19*
X140055600Y-106121200D02*
X140309600Y-106375200D01*
X140309600Y-106375200D02*
X140512800Y-106375200D01*
X127914400Y-106121200D02*
X140055600Y-106121200D01*
X145195200Y-115197000D02*
X144070200Y-114072000D01*
X128473200Y-124256800D02*
X126593600Y-122377200D01*
X144070200Y-114072000D02*
X144070200Y-111772000D01*
X144984600Y-124307600D02*
X128473200Y-124307600D01*
X145295200Y-123997000D02*
X144984600Y-124307600D01*
X128473200Y-124307600D02*
X128473200Y-124256800D01*
X127406400Y-119532400D02*
X124866400Y-119532400D01*
D22*
X129540000Y-121666000D02*
X159004000Y-121666000D01*
X122174000Y-106026000D02*
X122174000Y-117094000D01*
X122174000Y-117094000D02*
X122174000Y-117348000D01*
X127406400Y-119532400D02*
X129540000Y-121666000D01*
D19*
X122174000Y-117805200D02*
X122174000Y-117348000D01*
X124866400Y-119532400D02*
X124460000Y-119126000D01*
X124460000Y-119126000D02*
X123494800Y-119126000D01*
D22*
X123950000Y-104250000D02*
X122174000Y-106026000D01*
D19*
X123494800Y-119126000D02*
X122174000Y-117805200D01*
D22*
X134110000Y-104250000D02*
X135287001Y-103072999D01*
X135287001Y-93377001D02*
X132080000Y-90170000D01*
X135287001Y-103072999D02*
X135287001Y-93377001D01*
X136650000Y-101710000D02*
X141144459Y-97215541D01*
X141144459Y-97215541D02*
X152704899Y-97215541D01*
X121410000Y-104250000D02*
X121410000Y-120394000D01*
X126492000Y-125476000D02*
X145707000Y-125476000D01*
X121410000Y-120394000D02*
X126492000Y-125476000D01*
X125127001Y-116579399D02*
X123550260Y-118156140D01*
X125127001Y-93377001D02*
X125127001Y-116579399D01*
X121920000Y-90170000D02*
X125127001Y-93377001D01*
D19*
X131195200Y-115522000D02*
X132670200Y-115522000D01*
X132670200Y-115522000D02*
X139032860Y-109159340D01*
X131195200Y-115522000D02*
X131195200Y-115522000D01*
X118978100Y-119669900D02*
X118978100Y-118869900D01*
X120505200Y-124997000D02*
X120505200Y-121197000D01*
X120505200Y-121197000D02*
X118978100Y-119669900D01*
G04 #@! TA.AperFunction,Conductor*
G36*
X172662121Y-117876002D02*
G01*
X172708614Y-117929658D01*
X172720000Y-117982000D01*
X172720000Y-120524000D01*
X172699998Y-120592121D01*
X172646342Y-120638614D01*
X172594000Y-120650000D01*
X167766000Y-120650000D01*
X167697879Y-120629998D01*
X167651386Y-120576342D01*
X167640000Y-120524000D01*
X167640000Y-118236000D01*
X167660002Y-118167879D01*
X167713658Y-118121386D01*
X167766000Y-118110000D01*
X170180000Y-118110000D01*
X170397095Y-117892905D01*
X170459407Y-117858879D01*
X170486190Y-117856000D01*
X172594000Y-117856000D01*
X172662121Y-117876002D01*
G37*
G04 #@! TD.AperFunction*
M02*
