G04 #@! TF.GenerationSoftware,KiCad,Pcbnew,6.0.0*
G04 #@! TF.CreationDate,2022-01-07T13:13:10+02:00*
G04 #@! TF.ProjectId,sticky_pi_hat,73746963-6b79-45f7-9069-5f6861742e6b,rev?*
G04 #@! TF.SameCoordinates,Original*
G04 #@! TF.FileFunction,Soldermask,Bot*
G04 #@! TF.FilePolarity,Negative*
%FSLAX46Y46*%
G04 Gerber Fmt 4.6, Leading zero omitted, Abs format (unit mm)*
G04 Created by KiCad (PCBNEW 6.0.0) date 2022-01-07 13:13:10*
%MOMM*%
%LPD*%
G01*
G04 APERTURE LIST*
%ADD10R,2.100000X2.100000*%
%ADD11C,2.100000*%
%ADD12C,0.600000*%
%ADD13R,1.700000X1.700000*%
%ADD14O,1.700000X1.700000*%
%ADD15C,5.600000*%
G04 APERTURE END LIST*
D10*
X114300000Y-90170000D03*
D11*
X116840000Y-90170000D03*
X119380000Y-90170000D03*
X121920000Y-90170000D03*
X124460000Y-90170000D03*
X127000000Y-90170000D03*
X129540000Y-90170000D03*
X132080000Y-90170000D03*
X134620000Y-90170000D03*
X137160000Y-90170000D03*
X139700000Y-90170000D03*
D12*
X136894000Y-116324000D03*
X135394000Y-115324000D03*
X136144000Y-115824000D03*
X135394000Y-116324000D03*
X136894000Y-115324000D03*
D13*
X126441200Y-108661200D03*
D14*
X123901200Y-108661200D03*
D15*
X114005200Y-102997000D03*
X172005200Y-125997000D03*
X172005200Y-102997000D03*
X114005200Y-125997000D03*
D13*
X118870000Y-104250000D03*
D14*
X118870000Y-101710000D03*
X121410000Y-104250000D03*
X121410000Y-101710000D03*
X123950000Y-104250000D03*
X123950000Y-101710000D03*
X126490000Y-104250000D03*
X126490000Y-101710000D03*
X129030000Y-104250000D03*
X129030000Y-101710000D03*
X131570000Y-104250000D03*
X131570000Y-101710000D03*
X134110000Y-104250000D03*
X134110000Y-101710000D03*
X136650000Y-104250000D03*
X136650000Y-101710000D03*
X139190000Y-104250000D03*
X139190000Y-101710000D03*
X141730000Y-104250000D03*
X141730000Y-101710000D03*
X144270000Y-104250000D03*
X144270000Y-101710000D03*
X146810000Y-104250000D03*
X146810000Y-101710000D03*
X149350000Y-104250000D03*
X149350000Y-101710000D03*
M02*
