; NON-PLATED HOLES START AT T1
; THROUGH (PLATED) HOLES START AT T100
M48
INCH
T1C0.118110
T100C0.027559
T101C0.098425
T102C0.039370
T103C0.038000
T104C0.015748
T105C0.035000
T106C0.042000
%
T1
X000988Y006985
X029988Y000985
X029988Y006985
X000988Y000985
T100
X001988Y003985
X001988Y004985
T101
X018488Y001485
X018488Y006485
T102
X012988Y003985
X012988Y004985
X012988Y001985
X012988Y005985
X012988Y002985
T103
X029988Y002985
X024988Y001985
X024988Y000985
X003988Y000985
X009988Y000985
X023988Y000985
X003988Y006985
X021988Y006985
X010988Y006985
X020988Y006985
X009988Y006985
X022988Y000985
X005988Y006985
X028988Y002985
X022988Y006985
X019988Y002985
X007988Y006985
X027988Y002985
X029988Y004985
X023988Y001985
X010988Y000985
X028988Y004985
X002988Y000985
X022988Y001985
X008988Y000985
X006988Y006985
X002988Y006985
T104
X024988Y002985
T105
X006988Y001985
X022816Y003813
X019988Y000985
X010988Y001985
T106
X026988Y006985
X027988Y006985
X025988Y006985
T00
M30
