G04 MADE WITH FRITZING*
G04 WWW.FRITZING.ORG*
G04 DOUBLE SIDED*
G04 HOLES PLATED*
G04 CONTOUR ON CENTER OF CONTOUR VECTOR*
%ASAXBY*%
%FSLAX23Y23*%
%MOIN*%
%OFA0B0*%
%SFA1.0B1.0*%
%ADD10C,0.039370*%
%ADD11C,0.065000*%
%ADD12C,0.082000*%
%ADD13C,0.138425*%
%ADD14C,0.070000*%
%ADD15C,0.075000*%
%ADD16C,0.078000*%
%ADD17R,0.082000X0.082000*%
%ADD18R,0.070000X0.070000*%
%ADD19C,0.024000*%
%ADD20R,0.001000X0.001000*%
%LNCOPPER0*%
G90*
G70*
G54D10*
X2499Y299D03*
G54D11*
X199Y499D03*
X199Y399D03*
G54D12*
X2599Y699D03*
X2699Y699D03*
X2799Y699D03*
G54D13*
X1849Y649D03*
G54D14*
X1299Y599D03*
X1299Y499D03*
X1299Y399D03*
X1299Y299D03*
X1299Y199D03*
G54D13*
X1849Y149D03*
G54D15*
X1099Y199D03*
X699Y199D03*
G54D16*
X399Y99D03*
X299Y99D03*
X2499Y199D03*
X2399Y199D03*
X2299Y199D03*
X2499Y199D03*
X2399Y199D03*
X2299Y199D03*
X2299Y99D03*
X2399Y99D03*
X2499Y99D03*
G54D15*
X1999Y99D03*
X2282Y381D03*
G54D16*
X999Y699D03*
X1099Y699D03*
X399Y699D03*
X299Y699D03*
X799Y699D03*
X699Y699D03*
X599Y699D03*
X2299Y699D03*
X2199Y699D03*
X2099Y699D03*
X1999Y299D03*
X1099Y99D03*
X999Y99D03*
X899Y99D03*
X2999Y499D03*
X2899Y499D03*
X2999Y299D03*
X2899Y299D03*
X2799Y299D03*
G54D17*
X2599Y699D03*
G54D18*
X1299Y599D03*
G54D19*
X1998Y197D02*
X1898Y300D01*
D02*
X1499Y197D02*
X1330Y198D01*
D02*
X2200Y197D02*
X1998Y197D01*
D02*
X1898Y300D02*
X1599Y300D01*
D02*
X1599Y300D02*
X1499Y197D01*
D02*
X2269Y198D02*
X2200Y197D01*
D02*
X399Y299D02*
X399Y499D01*
D02*
X200Y299D02*
X399Y299D01*
D02*
X399Y499D02*
X399Y668D01*
D02*
X199Y374D02*
X200Y299D01*
D02*
X599Y599D02*
X599Y668D01*
D02*
X1268Y599D02*
X599Y599D01*
D02*
X399Y129D02*
X399Y668D01*
D02*
X2100Y298D02*
X2100Y398D01*
D02*
X2399Y398D02*
X2299Y298D01*
D02*
X2299Y298D02*
X2100Y298D01*
D02*
X2599Y399D02*
X2399Y398D01*
D02*
X2598Y399D02*
X2599Y399D01*
D02*
X2598Y99D02*
X2598Y399D01*
D02*
X2529Y99D02*
X2598Y99D01*
D02*
X2100Y398D02*
X2099Y668D01*
D02*
X2699Y499D02*
X2799Y398D01*
D02*
X2799Y398D02*
X2799Y329D01*
D02*
X2199Y497D02*
X2699Y499D01*
D02*
X2199Y668D02*
X2199Y497D01*
D02*
X2799Y598D02*
X2799Y666D01*
D02*
X2700Y497D02*
X2799Y598D01*
D02*
X2799Y329D02*
X2799Y398D01*
D02*
X2799Y398D02*
X2700Y497D01*
G54D20*
X166Y431D02*
X230Y431D01*
X166Y430D02*
X230Y430D01*
X166Y429D02*
X230Y429D01*
X166Y428D02*
X230Y428D01*
X166Y427D02*
X230Y427D01*
X166Y426D02*
X230Y426D01*
X166Y425D02*
X230Y425D01*
X166Y424D02*
X230Y424D01*
X166Y423D02*
X230Y423D01*
X166Y422D02*
X230Y422D01*
X166Y421D02*
X230Y421D01*
X166Y420D02*
X230Y420D01*
X166Y419D02*
X230Y419D01*
X166Y418D02*
X230Y418D01*
X166Y417D02*
X230Y417D01*
X166Y416D02*
X230Y416D01*
X166Y415D02*
X230Y415D01*
X166Y414D02*
X230Y414D01*
X166Y413D02*
X230Y413D01*
X166Y412D02*
X194Y412D01*
X203Y412D02*
X230Y412D01*
X166Y411D02*
X191Y411D01*
X205Y411D02*
X230Y411D01*
X166Y410D02*
X190Y410D01*
X207Y410D02*
X230Y410D01*
X166Y409D02*
X188Y409D01*
X208Y409D02*
X230Y409D01*
X166Y408D02*
X188Y408D01*
X209Y408D02*
X230Y408D01*
X166Y407D02*
X187Y407D01*
X210Y407D02*
X230Y407D01*
X166Y406D02*
X186Y406D01*
X211Y406D02*
X230Y406D01*
X166Y405D02*
X186Y405D01*
X211Y405D02*
X230Y405D01*
X166Y404D02*
X185Y404D01*
X212Y404D02*
X230Y404D01*
X166Y403D02*
X185Y403D01*
X212Y403D02*
X230Y403D01*
X166Y402D02*
X184Y402D01*
X212Y402D02*
X230Y402D01*
X166Y401D02*
X184Y401D01*
X212Y401D02*
X230Y401D01*
X166Y400D02*
X184Y400D01*
X213Y400D02*
X230Y400D01*
X166Y399D02*
X184Y399D01*
X213Y399D02*
X230Y399D01*
X166Y398D02*
X184Y398D01*
X213Y398D02*
X230Y398D01*
X166Y397D02*
X184Y397D01*
X212Y397D02*
X230Y397D01*
X166Y396D02*
X184Y396D01*
X212Y396D02*
X230Y396D01*
X166Y395D02*
X185Y395D01*
X212Y395D02*
X230Y395D01*
X166Y394D02*
X185Y394D01*
X212Y394D02*
X230Y394D01*
X166Y393D02*
X185Y393D01*
X211Y393D02*
X230Y393D01*
X166Y392D02*
X186Y392D01*
X211Y392D02*
X230Y392D01*
X166Y391D02*
X187Y391D01*
X210Y391D02*
X230Y391D01*
X166Y390D02*
X187Y390D01*
X209Y390D02*
X230Y390D01*
X166Y389D02*
X188Y389D01*
X208Y389D02*
X230Y389D01*
X166Y388D02*
X190Y388D01*
X207Y388D02*
X230Y388D01*
X166Y387D02*
X191Y387D01*
X206Y387D02*
X230Y387D01*
X166Y386D02*
X193Y386D01*
X203Y386D02*
X230Y386D01*
X166Y385D02*
X230Y385D01*
X166Y384D02*
X230Y384D01*
X166Y383D02*
X230Y383D01*
X166Y382D02*
X230Y382D01*
X166Y381D02*
X230Y381D01*
X166Y380D02*
X230Y380D01*
X166Y379D02*
X230Y379D01*
X166Y378D02*
X230Y378D01*
X166Y377D02*
X230Y377D01*
X166Y376D02*
X230Y376D01*
X166Y375D02*
X230Y375D01*
X166Y374D02*
X230Y374D01*
X166Y373D02*
X230Y373D01*
X166Y372D02*
X230Y372D01*
X166Y371D02*
X230Y371D01*
X166Y370D02*
X230Y370D01*
X166Y369D02*
X230Y369D01*
X166Y368D02*
X230Y368D01*
X166Y367D02*
X230Y367D01*
D02*
G04 End of Copper0*
M02*